<?xml version="1.0" encoding="utf-8"?>
<!-- Generator: Adobe Illustrator 23.0.0, SVG Export Plug-In . SVG Version: 6.00 Build 0)  -->
<svg version="1.1" xmlns="http://www.w3.org/2000/svg" xmlns:xlink="http://www.w3.org/1999/xlink" x="0px" y="0px"
	 viewBox="0 0 177.8 166" style="enable-background:new 0 0 177.8 166;" xml:space="preserve">
<style type="text/css">
	.st0{display:none;}
	.st1{display:inline;fill:#707780;}
	.st2{display:inline;}
	.st3{fill:#707780;}
	.st4{display:none;fill:#231F20;}
	.st5{display:none;fill:#707780;}
	.st6{fill:#707780;stroke:#707780;stroke-width:2;stroke-miterlimit:10;}
	.st7{fill:none;}
</style>
<g id="Layer_1" class="st0">
</g>
<g id="Layer_2">
	<path class="st0" d="M86,39.1c-0.6,0.3-1.3,0.5-1.5,0.5c-0.6,0-5.1,2.1-7,3.3c-4.1,2.6-9.5,7.6-12.6,11.8c-0.9,1.2-1.8,2.2-2,2.4
		c-0.2,0.2-1.1,1.5-2,2.9c-1.9,2.9-2.5,3.3-3.3,2.3c-0.5-0.6-0.6-0.7-0.6,0c-0.2,3.2-0.6,7.5-1,9.4c-0.5,3.1-0.2,3.4,1.4,1.4
		c0.6-0.9,1.2-1.7,1.2-1.9c0-0.1,0.4-0.7,0.9-1.2c0.5-0.5,1.6-1.8,2.4-2.9c3.6-4.8,10.3-10.3,15.1-12.4c5.6-2.5,7.6-3.1,11.6-3.5
		c3.6-0.3,9.2-0.1,10.7,0.5c0.6,0.3,1.6,0.5,2.1,0.5c0.5,0,1.2,0.2,1.5,0.5c0.4,0.3,0.9,0.5,1.2,0.5c0.3,0,0.8,0.1,1.2,0.3
		c0.3,0.2,1.4,0.7,2.3,1.1s2.2,1.1,2.7,1.4c0.5,0.4,1.2,0.7,1.4,0.9c1.3,0.6,5.6,4.2,8.4,7.1c2.7,2.8,7,8.1,7,8.6
		c0,0.3,1.4,2.1,1.7,2.1c0.4,0,0.3-1.5-0.1-2.3c-0.2-0.4-0.5-1.1-0.6-1.7c-0.5-2.1-2-5.9-3.4-8.6c-0.3-0.5-0.5-1.1-0.5-1.2
		c0-0.2-0.4-0.8-0.8-1.5s-1-1.5-1.1-1.9c-1.4-3.1-6.8-9.2-10.7-12.2c-3.6-2.7-8.3-5-11.5-5.7c-0.6-0.1-1.4-0.4-1.8-0.6
		C97.3,38.4,87.4,38.5,86,39.1z"/>
	<path class="st0" d="M108,98.5c-1.5,2.8-5.9,8.3-10,12.4c-2.2,2.2-4.2,4-4.3,4c-0.1,0-0.9,0.5-1.7,1.1c-2.9,2.3-10.9,5.7-13.2,5.7
		c-0.5,0-1.7,0.2-2.5,0.5c-2,0.6-6,0.6-8,0c-0.9-0.3-2.2-0.5-2.9-0.5s-1.6-0.2-1.9-0.5c-0.4-0.3-1-0.5-1.4-0.5s-1-0.1-1.3-0.3
		c-0.3-0.2-1.3-0.6-2.2-1c-0.9-0.4-2-0.9-2.6-1.2c-1.3-0.7-6.3-4-7.1-4.7c-3-2.6-5.6-5.1-6.6-6.3c-0.6-0.8-1.5-1.9-2-2.4
		c-0.5-0.5-1.2-1.4-1.6-2.1c-0.4-0.6-0.9-1.4-1.2-1.6c-0.2-0.3-0.6-0.9-0.9-1.5c-0.2-0.6-0.6-1.1-0.7-1.1c-0.5,0-0.4,1.6,0.2,2.6
		c0.3,0.5,0.5,1.2,0.5,1.6c0,0.5,0.2,1.1,0.5,1.4c0.3,0.3,0.5,0.8,0.5,1.1c0,0.3,0.2,0.9,0.5,1.4c0.3,0.5,0.5,1.2,0.5,1.5
		s0.2,0.7,0.5,1c0.3,0.2,0.5,0.6,0.5,1s0.2,0.7,0.5,1s0.5,0.6,0.5,1s0.2,0.7,0.5,1c0.3,0.2,0.5,0.6,0.5,0.8c0,0.3,0.6,1.4,1.4,2.6
		c0.8,1.2,1.4,2.2,1.4,2.4c0,0.8,8.8,9.7,9.6,9.7c0.2,0,0.8,0.4,1.4,1c0.6,0.5,1.4,0.9,1.6,1c0.3,0,0.7,0.2,0.9,0.5s0.6,0.5,1,0.5
		c0.3,0,0.7,0.2,1,0.5s0.6,0.5,0.9,0.5c0.3,0,0.8,0.2,1.1,0.5c0.4,0.3,1,0.5,1.4,0.5s1.1,0.2,1.4,0.4s1.5,0.5,2.5,0.6
		c1,0.1,2.6,0.4,3.6,0.6c1.4,0.3,2.2,0.3,3.9-0.1c1.1-0.3,2.7-0.5,3.5-0.5s1.7-0.2,2.1-0.5c0.3-0.3,0.9-0.5,1.2-0.5
		c0.5,0,1.6-0.5,3.1-1.3c0.3-0.2,0.8-0.5,1.3-0.6c0.4-0.2,0.9-0.5,1-0.6c0.1-0.1,0.7-0.6,1.4-1s1.6-1.1,2.1-1.5
		c0.5-0.4,1.7-1.5,2.7-2.4c1.1-0.9,2.7-2.6,3.7-3.7c1-1.1,2.1-2.4,2.6-2.9c0.5-0.5,1.3-1.5,1.7-2.3c0.5-0.7,1.1-1.6,1.4-1.9
		c0.7-0.7,2.6-3.6,2.6-3.9c0-0.5,1.3-1.4,1.6-1.2c0.2,0.1,0.4,0.5,0.4,0.9c0,0.6,0.6,1.9,0.7,1.5c0-0.1,0.2-1.9,0.3-4
		c0.2-2.1,0.4-4.3,0.5-4.8c0.1-0.5,0.3-1.9,0.4-3.1C108.9,98.1,108.6,97.3,108,98.5z"/>
	<g>
		<g>
			<path class="st3" d="M67.5,52.8c-3.7,5.6-4.5,6.1-5.3,3.3c-0.3-0.9-0.5,0.3-0.6,2.8c-0.1,2.5-0.6,6.6-1,9.1
				c-0.9,4.5-0.8,4.5,0.7,2.2C74.7,51.6,85.8,45,101.4,46c12.2,0.8,24.4,8.5,32.5,20.7c5.7,8.5,5.8,8.5,3.1,0.8
				c-3.8-11.1-7.6-17.7-13.7-23.8c-7.7-7.7-13.7-10.5-23.3-10.9c-6.3-0.2-8.4,0.1-12.6,2.1C81.1,37.9,72.1,46.1,67.5,52.8z"/>
			<path class="st3" d="M71.4,110c9.2,3.3,9.9,3,2.8-1.4c-7.5-4.9-14.6-12.6-18.4-20.2c-2.5-5.2-2.8-6.9-2.8-15.9
				c0-9.1,0.3-10.6,2.9-15.6c2.6-5.2,13.4-16.8,18.8-20.4c3-2,2.5-2.9-1-1.8c-1.4,0.4-4.3,0.7-6.4,0.8c-2.6,0.1-3.7,0.5-3.5,1.3
				c0.3,0.7-2.1,3.1-5.2,5.4C43.3,53.7,36.9,66.5,39.9,80.1C42.5,92.6,54.5,104,71.4,110z"/>
			<path class="st3" d="M137.2,82c-3.3-7.2-10.6-15.1-17.4-18.9c-4.5-2.5-18.7-8.2-20.6-8.2c-0.4,0,2.1,1.8,5.5,4
				c8.4,5.5,15,12.8,18.9,21c2.8,5.9,3.2,7.9,3.2,14.8c0,6.9-0.5,9.1-3.1,14.7c-3.6,7.8-10.7,15.9-17.7,20.3
				c-2.7,1.8-4.9,3.3-4.7,3.4c0.1,0.1,4-0.3,8.8-1c4.8-0.6,7.6-1.4,6.3-1.6c-2-0.3-1.6-0.9,3.9-5c7.7-5.5,14.2-12.7,17.3-19
				C141,99.7,140.8,89.7,137.2,82z"/>
			<path class="st3" d="M114.2,109.1c0.5,1.2,0.8,0.6,0.9-2.2c0-2.2,0.5-6.1,1-8.6c0.4-2.5,0.7-4.7,0.6-4.9c-0.2-0.1-2,2.2-4,5.3
				c-10.1,14.8-25.6,23.1-39.1,21.3c-11.1-1.5-24.1-10.7-32-22.5c-1.9-2.8-3.6-5.3-3.8-5.3s0.8,3,2.2,6.8
				c6.4,16.8,13.3,25.7,24.7,31c5.5,2.6,7.8,3.1,13.6,3c11.2-0.1,19.5-5.3,29.6-18.4C112.5,108.5,113.6,107.5,114.2,109.1z"/>
		</g>
		<path class="st3" d="M90.3,8.2C90,8.4,89.4,8.6,89,8.6c-0.7,0-1.9,1.2-2.8,2.8c-0.8,1.5-0.8,5.8,0.1,7.4c0.8,1.6,1.4,2.1,3.4,2.8
			c1.6,0.5,1.7,0.5,3.5,0c3.8-1.2,5.4-4.7,4.3-9.4c-0.5-2-1.7-3.3-3.9-4C91.6,7.5,91.1,7.5,90.3,8.2z M94,10c1,1.1,1.3,1.6,1.4,3.3
			c0.1,1.1,0.1,2.7,0,3.7c-0.2,1.5-0.4,2-1.4,3c-1.4,1.4-2.4,1.5-4,0.5c-3-2-3.3-8.5-0.4-10.9C91.2,8.2,92.5,8.3,94,10z"/>
		<path class="st3" d="M107.7,8.3c-3.1,1-4.6,3.3-4.6,7c0,3.5,1.2,5.4,4.1,6.4c1.5,0.5,1.9,0.5,3.5,0.2c2.7-0.6,3-0.8,2.9-2
			c-0.1-1.4-0.6-1.4-2.1,0.1c-1,1-1.4,1.3-2.3,1.3c-1.7,0-3.2-1.6-3.8-4.2c-0.5-1.9-0.5-2.2,0-4.1c1.1-3.9,3.8-5.4,5.9-3.3
			c1.1,1.1,2.1,1.1,2.2,0c0.1-0.5-0.1-0.8-1-1.2C110.9,7.7,109.4,7.7,107.7,8.3z"/>
		<path class="st3" d="M22.3,8.6c-0.4,0.3-0.4,0.4,0.1,0.9c0.5,0.5,0.5,1.3,0.5,5.3c0,3.2-0.1,5-0.4,5.4c-0.5,0.8-0.2,1.1,1.4,1.1
			c1.4,0,1.9-0.3,1.4-0.9c-0.3-0.3-0.4-2.3-0.3-6.1c0.1-4.5,0-5.7-0.4-5.9C23.9,8.2,22.8,8.3,22.3,8.6z"/>
		<path class="st3" d="M38.3,8.5c-0.6,0.2-0.7,0.6-0.3,0.9c0.5,0.3,0.4,10.6-0.1,11c-0.6,0.6,0,0.9,1.5,0.8c1.7,0,2-0.3,1.3-1
			c-0.4-0.4-0.5-1-0.5-2.7l0.1-2.1l1.7-0.1c1.3-0.1,1.7,0,1.9,0.4c0.1,0.3,0.5,0.5,0.8,0.5c0.5,0,0.6-0.3,0.6-1.4
			c0-1.7-0.5-2.2-1.3-1.2c-0.5,0.6-0.8,0.7-2.2,0.6l-1.6-0.1l-0.1-2.1c-0.1-1.7,0-2.3,0.5-2.7c0.3-0.3,0.5-0.6,0.4-0.7
			C41,8.6,38.8,8.4,38.3,8.5z"/>
		<path class="st3" d="M45,8.6c-0.3,0.4,2,2.6,2.4,2.4c0.2-0.1,0.3-0.7,0.3-1.3c0-0.8-0.2-1.1-0.7-1.3C45.9,8.2,45.2,8.3,45,8.6z"/>
		<path class="st3" d="M52.8,8.5c-0.6,0.1-1,2.3-0.6,2.8c0.3,0.4,1.6-0.3,1.6-0.9c0-0.3,0.3-0.7,0.7-0.9c0.6-0.5,0.6-0.6,0.2-0.8
			C54.3,8.3,53.7,8.3,52.8,8.5z"/>
		<path class="st3" d="M57.7,8.5c-0.3,0.1-0.7,0.2-1,0.3c-0.4,0.2-0.4,0.2,0.1,0.5c0.5,0.3,0.5,0.9,0.5,5.4c0,3.3-0.1,5.2-0.4,5.4
			c-0.7,0.7-0.1,1.4,1.4,1.3l1.3-0.1l0-6.3C59.8,8,59.7,7.8,57.7,8.5z"/>
		<path class="st3" d="M62.1,8.5c-1.1,0.2-1.2,0.6-0.3,0.9c0.4,0.1,0.9,0.6,1.2,1.2c0.9,1.4,1.4,1.2,1.3-0.6
			C64.3,8.3,64,8.2,62.1,8.5z"/>
		<path class="st3" d="M70.2,8.5c-0.6,0.2-0.7,0.6-0.3,0.9c0.5,0.3,0.4,10.6-0.1,11c-0.5,0.5-0.3,0.7,1.1,0.9
			c1.6,0.2,2.2-0.3,1.6-1.3c-0.3-0.5-0.4-1.4-0.2-2.7c0.1-1,0.2-2,0.2-2.2c-0.3-3.9-0.3-5.4,0.1-5.8c0.2-0.3,0.3-0.5,0.2-0.6
			C72.5,8.5,70.7,8.3,70.2,8.5z"/>
		<path class="st3" d="M119.5,8.6c-0.3,0.2-0.3,0.4,0,0.9c0.2,0.4,0.4,2.5,0.4,5.4s-0.1,5-0.4,5.4c-0.5,0.8,0.1,1.2,1.6,1.2
			c1.1,0,1.7-0.7,1.1-1.4c-0.2-0.2-0.4-2-0.4-5.2c0-4,0.1-5,0.5-5.3c0.4-0.3,0.4-0.5,0.2-0.8C122,8.3,120.1,8.2,119.5,8.6z"/>
		<path class="st3" d="M128.2,8.8c-0.2,0.3-0.4,1-0.3,1.5c0.1,1.4,1.1,1.6,1.4,0.4c0.1-0.5,0.6-1,1-1.2c1.1-0.5,1-0.8-0.2-1
			C128.7,8.2,128.6,8.2,128.2,8.8z"/>
		<path class="st3" d="M132.9,8.5c-0.6,0.2-0.7,0.6-0.3,0.9c0.2,0.1,0.3,2.3,0.3,5.5s-0.1,5.3-0.3,5.5c-1.1,0.7,1,1.4,2.4,0.8
			c0.8-0.3,0.9-0.4,0.4-0.9c-0.4-0.5-0.5-1.4-0.5-5.5c0-3.4,0.1-5.1,0.4-5.4c0.2-0.2,0.3-0.5,0.2-0.5C135.2,8.5,133.5,8.3,132.9,8.5
			z"/>
		<path class="st3" d="M137.6,8.5c-1,0.2-0.9,0.5,0.2,1.1c0.6,0.4,1,0.8,1,1.2c0,1.2,1.1,0.6,1.2-0.6C140.2,8.6,139.6,8.2,137.6,8.5
			z"/>
		<path class="st3" d="M144.3,8.6c-0.4,0.3-0.3,0.5,0.4,1.2c0.5,0.5,0.9,1,0.9,1.1c0,0.1,0.7,1.2,1.5,2.4l1.4,2.2l-0.1,2.8
			c-0.1,3.1-0.1,3.2,1.7,3.2c1.1,0,1.5-0.7,1-1.4c-0.2-0.2-0.4-1.2-0.4-2.2c0-1.6,0.1-1.9,1.8-4.5c1-1.5,2.2-3.1,2.7-3.6
			c0.7-0.7,0.8-0.9,0.4-1.2c-1.2-0.7-2.8-0.2-2.4,0.9c0.2,0.6-0.8,2.6-1.5,2.9c-0.2,0.1-0.3,0.3-0.3,0.5c0,0.5-1,1.5-1.5,1.5
			c-0.2,0-0.4-0.3-0.5-0.6c-0.1-0.3-0.5-1-0.8-1.5c-1-1.5-1.3-2.3-1.1-3c0.1-0.4,0.1-0.7,0.1-0.7C146,8.4,144.6,8.4,144.3,8.6z"/>
		<path class="st3" d="M27.4,9c0,0.2,0.4,0.4,0.8,0.5C29.3,9.7,30,10.8,30,12c0,1.2-0.8,2.4-1.6,2.4c-0.3,0-0.8,0.2-1,0.5
			c-0.4,0.4-0.2,0.5,1,0.5c1.8,0,3-0.8,3.5-2.4c0.5-1.3,0.3-2.3-0.7-3.4c-0.5-0.7-0.9-0.9-2.3-0.9C28.1,8.6,27.4,8.8,27.4,9z"/>
		<path class="st3" d="M74.7,9c0,0.2,0.5,0.4,1,0.5c1,0.2,1.9,1.4,1.9,2.5c0,1.1-0.8,2.2-2,2.7c-1.3,0.5-1.6,1.3-0.7,1.6
			c0.5,0.2,2.7,3.3,3.1,4.3c0.2,0.6,2.4,1.1,2.9,0.6c0.2-0.2,0-0.7-0.8-1.5c-0.6-0.6-1.2-1.4-1.2-1.6c0-0.2-0.5-0.8-1-1.4
			c-1-1.1-1-1.9,0-2.2c0.7-0.2,1.9-2.1,1.9-3c0-0.4-0.5-1.2-1-1.8c-0.9-1-1.2-1.1-2.6-1.1C75.4,8.6,74.7,8.8,74.7,9z"/>
		<path class="st3" d="M46.7,18.8c-0.2,0.3-0.8,0.9-1.2,1.3c-0.9,0.9-0.7,1.4,0.4,1.4s1.7-0.7,1.9-1.9C47.9,18.4,47.3,18,46.7,18.8z
			"/>
		<g>
			<path class="st3" d="M101.9,69.9c-0.8,0.6-1,2.3-0.4,2.3c0.2,0,0.8-0.4,1.3-0.8c0.7-0.7,1-0.8,1.5-0.5c1.2,0.6,0.8,1.7-1.2,3.7
				c-1.9,1.9-2.6,3-1.8,3.3c0.2,0.1,1.5,0.1,3,0.1c2-0.1,2.5-0.2,2.5-0.6c0-0.4-0.5-0.5-1.7-0.6c-1.6-0.1-1.7-0.1-1.3-0.8
				c0.2-0.4,0.7-1,1.1-1.3c0.9-0.7,1.7-2.2,1.7-3.1c0-0.4-0.3-1-0.7-1.5c-0.5-0.7-0.9-0.8-2-0.8C103.2,69.3,102.4,69.6,101.9,69.9z"
				/>
			<path class="st3" d="M78.5,77.8c-0.7,0.2-1.4,0.6-1.4,0.8c-0.2,0.6-1.4,0.5-2.1-0.2c-0.9-0.8-4.7-0.8-5.7,0.1
				c-0.6,0.6-0.7,0.6-1,0.1c-0.2-0.4-0.7-0.5-1.8-0.5h-1.4l0.1,6.3l0.1,6.4h1.4h1.4l0.2-4.4c0.2-4.4,0.3-4.9,1.6-6
				c0.8-0.6,1.8-0.5,2.5,0.5c0.5,0.7,0.6,1.7,0.8,5.4l0.2,4.5l1.1,0.1c1.8,0.2,2-0.2,2-4.5c0-4,0.2-4.8,1.4-5.8
				c0.9-0.8,1.5-0.7,2.4,0.2c0.6,0.7,0.7,1.1,0.8,5.4l0.1,4.7l1.3,0.1c0.8,0.1,1.4-0.1,1.6-0.3c0.2-0.3,0.3-2.5,0.2-5.7
				c-0.2-4.8-0.3-5.4-0.8-6c-0.5-0.5-3-1.5-3.4-1.4C79.9,77.4,79.2,77.6,78.5,77.8z"/>
			<path class="st3" d="M91.9,77.8c-1.9,0.5-2.8,1.1-3.6,2.5c-0.6,1-0.7,1.6-0.7,4.2c0,3,0.1,3.2,1,4.3c1.8,2.2,4.6,3,7.4,2
				c1.3-0.5,1.9-0.9,2.8-2.2c0.9-1.3,0.7-1.8-0.6-2c-1.1-0.2-1.4-0.1-2.3,0.9c-0.8,0.8-1.4,1.1-2.1,1.1c-1.2,0-1.5-0.2-2.4-1.6
				c-2.3-3.8,1.4-9.2,4.1-6.1c0.7,0.8,1.1,1,2.4,1c0.9,0,1.5-0.2,1.5-0.3c0-0.5-1.5-2.8-2-3.1c-0.5-0.3-3.2-1-3.6-1
				C93.5,77.4,92.7,77.6,91.9,77.8z"/>
		</g>
		<path class="st3" d="M83.9,147.1c-0.3,0.5,0.5,0.9,1.1,0.7c0.2-0.1,0.4-0.4,0.4-0.6C85.4,146.6,84.2,146.6,83.9,147.1z"/>
		<path class="st3" d="M120.9,147.1c-0.2,0.4,0.5,1,1,0.8c0.2-0.1,0.4-0.4,0.4-0.6C122.4,146.7,121.3,146.5,120.9,147.1z"/>
		<path class="st3" d="M116.8,147.9c-0.1,0.1-0.2,0.5-0.2,0.8s-0.3,0.7-0.5,0.9c-0.5,0.3-0.5,0.3,0,0.9c0.4,0.5,0.5,1.2,0.5,2.6
			c0,2.1,0.4,2.6,1.9,2.6c0.8,0,0.9-1.1,0.2-1.4c-0.4-0.1-0.5-0.6-0.5-1.7c0-1.3,0.1-1.7,0.7-2.1c0.6-0.5,0.7-0.5,0.2-0.9
			c-0.3-0.2-0.6-0.7-0.6-1.1C118.3,147.8,117.3,147.5,116.8,147.9z"/>
		<path class="st3" d="M41.6,149.7c-1.2,0.3-1.7,1.2-1.7,3c0,2.5,1.3,3.4,4,2.9c1.6-0.3,1.5-1.2-0.1-1.2c-2,0.1-2.3,0-2.3-0.5
			c0-0.5,1.4-0.8,2.9-0.8c0.8,0,0.9-0.1,0.9-0.9C45.4,150.1,43.9,149.1,41.6,149.7z M43.8,151.4c0.1,0.6,0,0.7-0.9,0.7
			c-1.1,0-1.5-0.4-1.2-1.2C42,150.2,43.6,150.6,43.8,151.4z"/>
		<path class="st3" d="M48.8,149.5l-1.7,0.1v3.1c0,2.8,0.1,3,0.6,3c0.8,0,1-0.6,1-2.5c0-1.7,0.6-2.7,1.5-2.5
			c0.5,0.1,0.6,0.5,0.8,2.5c0.2,2.3,0.2,2.4,1,2.4s0.8-0.1,0.9-2.2C52.9,149.9,52.3,149.4,48.8,149.5z"/>
		<path class="st3" d="M56,149.5c-0.7,0.1-1.1,0.5-1.6,1.5c-0.7,1.4-0.7,1.4-0.1,2.8c0.6,1.5,1.1,1.8,2.9,1.8c1.4,0,2.4-0.4,2.4-0.8
			c0-0.4-0.4-0.5-1.6-0.4c-0.9,0-1.8-0.1-2-0.3c-0.7-0.7-0.3-0.8,2.7-1c0.8-0.1,0.9-0.2,0.9-1.3C59.6,150.1,58.3,149.2,56,149.5z
			 M57.8,151.4c0,0.8-1.6,1.1-1.9,0.3c-0.3-0.8,0.1-1.2,1-1.1C57.6,150.7,57.8,150.9,57.8,151.4z"/>
		<path class="st3" d="M67.4,149.5c-0.5,0.1-1,0.6-1.4,1.5c-0.8,1.6-0.6,2.7,0.6,3.9c0.7,0.7,1,0.8,2.1,0.6c1.3-0.2,1.7,0.1,1.4,0.9
			c-0.3,0.7-1.3,0.9-2.5,0.5c-1.3-0.5-1.6-0.3-1.1,0.6c0.3,0.5,0.6,0.7,2,0.7c2,0,2.7-0.4,3.2-1.6c0.5-1.4,0.5-6.7,0-6.9
			C70.7,149.6,68.2,149.4,67.4,149.5z M69.9,151.2c0.5,0.9,0.4,2.5-0.1,2.9c-0.3,0.2-0.9,0.4-1.4,0.3c-0.8-0.1-0.9-0.2-1-1.5
			c-0.1-0.8,0.1-1.6,0.3-1.9C68.2,150.4,69.5,150.5,69.9,151.2z"/>
		<path class="st3" d="M104.9,149.5c-0.1,0.1-1.6,0.2-3.5,0.2l-3.3,0l-0.1,2.6c-0.1,2.7,0.2,3.6,1,3.3c0.4-0.2,0.5-0.6,0.5-2.1
			c0-2.1,0.5-3.1,1.5-2.9c0.5,0.1,0.6,0.4,0.7,1.9c0.1,2.4,0.3,3.2,0.8,3.2c0.6,0,0.8-0.7,0.8-2.4c0-1.8,0.5-2.7,1.3-2.7
			c0.8,0,1.3,1.2,1.2,3.2c-0.1,1.7,0.1,2.1,0.9,1.8c0.6-0.3,0.7-4.7,0.1-5.4C106.4,149.7,105.2,149.2,104.9,149.5z"/>
		<path class="st3" d="M110.8,149.5c-1.4,0.3-2,1.2-2,3.1c0,2.1,0.6,2.8,2.7,3c1.3,0.2,1.5,0.1,2.5-0.8c0.9-0.9,1-1.2,0.8-2.5
			c-0.1-0.8-0.4-1.7-0.7-2C113.5,149.6,112,149.3,110.8,149.5z M113.3,151.6c0.5,0.8,0.5,1,0.1,1.8c-1,1.7-3.2,1.2-3.2-0.7
			C110.1,150.6,112.3,149.9,113.3,151.6z"/>
		<path class="st3" d="M125.9,149.6c-0.9,0.3-2.3,2.1-2.3,3.1c0,1.3,1.2,2.7,2.4,3c2.5,0.5,4-0.7,4.1-3.1c0-1.1-0.2-1.6-0.7-2.1
			C128.6,149.6,127.1,149.3,125.9,149.6z M128.3,151.6c0.7,2-1.1,3.8-2.4,2.5c-0.4-0.4-0.6-1-0.6-1.5
			C125.3,150.6,127.7,149.8,128.3,151.6z"/>
		<path class="st3" d="M133.6,149.6l-1.8,0.2l-0.1,2.8c-0.1,2.3,0,2.8,0.5,3c0.7,0.3,1.1-0.5,0.9-1.9c-0.4-2.1,1.2-4,2.4-2.8
			c0.2,0.2,0.4,1.3,0.4,2.6c0,2.1,0,2.2,0.7,2.1c0.6-0.1,0.7-0.3,0.8-1.9c0.1-1,0-2.3-0.2-2.9C136.8,149.5,136.4,149.4,133.6,149.6z
			"/>
		<path class="st3" d="M61.5,152.7c0,2.8,0.1,3.1,0.6,3c0.4-0.1,0.6-0.5,0.7-1.9c0.2-2.3,0.8-3.2,1.8-3.2c0.5,0,0.8-0.2,0.8-0.5
			c0-0.4-0.4-0.5-1.9-0.5h-1.9V152.7z"/>
		<path class="st3" d="M73.1,150.2c0,0.6,0.5,1.9,1.5,4.1c0.6,1.3,0.3,2.6-0.7,2.9c-1.2,0.3-1,1.1,0.3,1.1c0.5,0,1.2-0.1,1.4-0.3
			c0.5-0.4,1.4-1.9,1.4-2.5c0-0.3,0.2-0.9,0.5-1.4c0.5-1,1.2-2.8,1.4-3.9c0.1-0.5,0-0.7-0.5-0.7c-0.9,0-1.4,0.6-1.4,1.6
			c0,1.3-0.3,1.9-1,1.9c-0.4,0-0.6-0.3-0.8-0.9c-0.4-2-0.7-2.5-1.4-2.6C73.3,149.6,73.1,149.7,73.1,150.2z"/>
		<path class="st3" d="M83.8,152.6c0.1,2.6,0.2,3,0.7,3.1c0.9,0.2,1-0.2,1-3.2c0-2.7,0-2.7-0.9-2.8l-0.9-0.1L83.8,152.6z"/>
		<path class="st3" d="M87.2,149.8c-0.1,0.2,0,1.5,0.1,3c0.2,2.3,0.3,2.7,0.8,2.8c0.5,0.1,0.5-0.2,0.5-1.8c0-2.1,0.6-3.3,1.6-3.3
			c0.9,0,1.3,1,1.3,3.2c0,1.7,0.1,2,0.6,2c0.3,0,0.7-0.2,0.8-0.5c0.3-0.8,0.2-3.4-0.2-4.5l-0.4-1.1h-2.5
			C88.4,149.6,87.3,149.7,87.2,149.8z"/>
		<path class="st3" d="M120.8,152.6c0.1,2.7,0.2,3,0.7,3c0.6,0,0.6-0.3,0.7-3l0.1-3h-0.8h-0.8L120.8,152.6z"/>
	</g>
</g>
</svg>
