<?xml version="1.0" encoding="utf-8"?>
<!-- Generator: Adobe Illustrator 23.0.0, SVG Export Plug-In . SVG Version: 6.00 Build 0)  -->
<svg version="1.1" xmlns="http://www.w3.org/2000/svg" xmlns:xlink="http://www.w3.org/1999/xlink" x="0px" y="0px"
	 viewBox="0 0 177.8 166" style="enable-background:new 0 0 177.8 166;" xml:space="preserve">
<style type="text/css">
	.st0{display:none;}
	.st1{display:inline;fill:#707780;}
	.st2{display:inline;}
	.st3{fill:#707780;}
	.st4{display:none;fill:#231F20;}
	.st5{display:none;fill:#707780;}
	.st6{fill:#707780;stroke:#707780;stroke-width:2;stroke-miterlimit:10;}
	.st7{fill:none;}
</style>
<g id="Layer_1" class="st0">
</g>
<g id="Layer_2">
	<g>
		<g transform="translate(0.000000,489.000000) scale(0.100000,-0.100000)">
			<path class="st3" d="M1074.5,4519.2c-0.7-2.2-1.5-8.1-1.5-12.8c0-8.6-1.7-17.2-8.9-41.3c-1.7-6.6-5.7-20.7-8.4-30.8
				c-5.9-22.6-11.8-41.6-15-47.2c-1.2-2.5-2.2-6.4-2.2-8.6c0-2.5-1.7-7.6-3.7-11.6c-2-3.7-3.7-8.6-3.7-10.6c0-2-1.5-6.6-3.4-10.1
				c-1.7-3.7-7.9-16-13.5-27.6s-15-29.8-21.2-40.6c-9.8-17.2-27.1-52.2-33.2-66.4c-4.9-11.6-9.6-30.5-11.1-44.5
				c-1-8.4-2.7-16.5-3.7-18.2c-3-4.7-10.8-0.7-14,6.6c-1.7,3.9-6.6,13.5-11.3,21.7c-4.4,8.1-12.5,22.6-17.7,32
				c-4.9,9.6-10.1,18.5-11.1,19.7c-1.7,2.2-8.1,14.3-23.6,43.1c-2.7,4.7-5.4,9.1-6.2,9.8c-0.7,0.7-3.9,6.4-7.1,12.8
				c-11.1,22.6,24.4,20.7-326,19.2c-302.9-1.5-310.3-1.5-322.3-6.4c-18.7-7.4-40.6-18.7-40.6-20.9c0-1-2-2.5-4.4-3.2
				c-10.3-3.4-49.2-47-53.1-59.8c-1-3.2-3-5.7-4.2-5.7s-2.2-1.2-2.2-2.7c0-2.2-2.7-9.1-12.3-30.5c-7.6-17.2-12.8-60-10.8-91
				c1.5-25.3,1.7-27.1,11.1-56.6c14.5-46.3,51.7-92.8,88.6-111.2c25.6-12.5,32-14.8,53.9-18.9c18.7-3.4,65-3.9,430.1-3.9
				c225.1,0,409,0.7,408.5,2c-0.5,1-2.5,5.2-4.4,9.1c-2,4.2-4.2,7.9-4.9,8.6c-3.4,3.4-22.4,42.6-21.2,43.8c1,0.7,18,1.5,37.9,1.7
				c39.4,0.2,50,2.7,70.1,15.5c11.3,7.1,34,28.5,36.9,35.2c1,2,2.7,5.2,3.9,7.1c2,3.4,4.9,9.8,13.5,30c2.2,4.9,3.9,11.1,3.9,14
				c0,2.7,1.7,11.3,3.7,19.2c3.9,15.3,4.7,51.7,1.2,69.6c-5.9,32.2-8.1,41.8-12.5,53.9c-6.2,17-17.2,39.9-21.2,44
				c-1.7,1.7-3.2,4.2-3.2,5.4c0,1.2-4.7,9.1-10.3,17.7c-18.7,27.8-41.3,71.1-41.3,78.5c0,2.5-1,4.9-2.2,5.9
				c-1.2,0.7-3.2,4.9-4.2,9.1c-0.7,4.4-2.5,9.6-3.4,11.8c-2.2,3.9-9.1,26.6-15.7,50.4c-2.2,8.1-5.2,18.5-6.6,22.6
				c-3,9.1-6.4,27.3-9.6,48.2C1078.2,4522.2,1076.9,4525.1,1074.5,4519.2z M1080.4,4447.4c0-5.2,6.9-29,11.3-39.6
				c2-4.4,3.4-10.6,3.4-13.5c0-3.2,1.2-6.9,2.7-8.4c1.5-1.5,3.4-6.4,4.7-10.8c4.9-19.4,24.6-63.2,36.9-82.2
				c2.7-3.9,5.7-9.1,6.6-11.1c0.7-2,4.2-7.1,7.4-11.3c14.8-19.7,33.5-58.8,37.6-78.5c1.2-5.4,3.2-14.3,4.7-19.7
				c3.9-15,3.4-67.2-1-81.4c-2-6.6-3.7-14.5-3.7-17.5c0-5.2-5.2-19.2-10.1-27.8c-1.2-2-3.7-6.9-5.7-11.1
				c-7.4-16-40.6-43.1-57.3-46.8c-4.4-0.7-8.6-2.7-9.4-3.9c-1-1.2-14-2.2-29-2.2c-38.9,0-59.3,8.1-84.4,33
				c-18.9,19.2-29.5,41.1-35.7,74.1c-5.4,30.3-2.2,78.5,6.6,99.2c2,4.4,3.4,9.6,3.4,11.6c0,3.9,12.3,31.7,19.9,45.5
				c2.7,4.7,6.6,12.1,8.6,16c2,4.2,5.7,10.8,8.1,14.8c4.7,7.1,27.1,51.9,33.2,66.4c1.7,4.2,5.7,15.5,8.9,25.3
				c3,9.8,6.4,18.5,7.6,19.2c1.2,0.7,2.2,4.4,2.2,8.4s1.5,10.8,3.4,15.3c3,6.6,8.9,25.6,12.8,40.8
				C1075.7,4455.5,1080.4,4452.3,1080.4,4447.4z M459.6,4233.8c19.2-10.3,30-23.1,41.8-49.2c3.9-8.9,4.4-18.5,4.4-99.7v-89.8
				l-24.6-0.7c-38.1-1-35.4-3.4-36.2,33.5l-0.7,31.2h-20.9h-20.9l-0.7-30.8c-0.5-20.7-1.7-31.2-3.7-32.5c-3.9-2.5-51.4-2.5-55.4,0.2
				c-2.7,1.7-3.2,18.9-2.5,90.3c0.5,58.3,1.7,90.1,3.4,93.3c1.5,2.7,5.4,10.3,8.6,17c10.1,20.4,27.1,34.9,51.4,44.3
				c2,0.7,12.5,1,23.4,0.7C443.3,4240.9,449.2,4239.7,459.6,4233.8z M594.4,4232.1c0.7-3.2,1.5-22.1,2-42.6l0.5-36.9l10.1-0.7
				c20.2-1.5,28.1,14.5,28.1,55.9c0,12.1,0.7,23.6,1.5,25.8c1.2,3.2,5.9,3.9,26.1,3.9c34.7,0,34,0.7,34-33.2
				c0-34.4-4.9-57.8-14.8-70.1l-7.1-9.1l6.9-9.6c13-18,15.3-30,14.5-77.5l-0.7-42.8l-28.1-0.7c-20.9-0.5-28.8,0.2-30.3,2.5
				c-1,1.7-2,19.9-2,40.1c0,37.2,0,37.2-6.9,45.5c-6.2,7.1-8.6,8.4-19.2,8.4l-12.1,0.2l-1.2-48l-1.2-48h-29.5h-29.5l-0.7,117.9
				c-0.2,84.9,0.2,118.8,2.2,121.1c2,2.5,10.1,3.4,29.5,3.4C591.9,4237.5,593.2,4237.2,594.4,4232.1z M278.2,4151.3
				c1-73.8,1.7-83.4,5.7-89.3c3-4.7,6.4-6.6,11.1-6.6c3.9,0,8.1-1.2,9.8-3c3.9-3.9,3.9-51.7,0.2-55.4c-2-2-8.9-2.5-20.4-1.5
				c-36.4,3-57.3,23.6-63,62.3c-3.7,25.3-3.2,174,0.7,175.7c1.5,0.5,14.5,1,28.8,0.7l25.8-0.5L278.2,4151.3z M853.3,4232.1
				c1-1.7,1.5-14.3,0.7-27.8l-1.2-24.6l-28.8-1.2c-23.4-1-29.5-2-33.7-5.9c-5.9-5.4-6.6-15.3-1.2-22.4c3.2-4.4,7.4-5.2,33.7-6.2
				l30-1.2v-28.3v-28.3l-28.8-1.2c-25.1-1-29.3-2-32.5-6.2c-5.4-7.1-4.7-16.7,1.7-22.9c4.9-4.7,8.9-5.4,32.5-5.9l27.1-0.7l0.7-25.6
				c0.5-18-0.2-26.6-2.5-29.3c-2.7-3.2-8.9-3.4-43.8-2.2c-22.4,1-44.3,2.2-48.5,3.2c-10.6,2.2-30.5,21.4-36.7,35.4
				c-9.8,23.1-4.7,58.8,11.1,75.5c6.6,6.9,6.4,9.1-0.7,18.7c-6.6,9.4-13.8,30.3-13.8,41.1c0,10.1,6.9,31,13.8,42.3
				c6.4,10.1,20.4,22.1,28.5,24.6c3.2,0.7,24.6,1.5,47.7,1.7C840,4235,851.5,4234.3,853.3,4232.1z"/>
			<path class="st3" d="M1064.4,4286.9c-2.7-1.2-8.4-2.5-12.5-2.5c-4.2-0.2-9.1-2-10.8-3.9c-1.7-2-4.4-3.7-6.2-3.7
				c-1.5,0-9.6-6.2-18-13.5c-17.2-15.7-29.8-39.1-34.4-64c-3.9-20.7-3.7-101.6,0.5-124.3c3.9-22.1,13.5-40.8,28.8-56.6
				c24.6-25.3,64-35.7,93.3-24.6c21.9,8.4,44.5,24.6,49.5,35.4c1.2,3,4.7,9.1,7.4,13.8c10.1,16.7,14.5,35.9,14.5,63.2
				c0,29-3.7,40.6-14.5,46c-4.2,2-17.2,3-39.6,3l-33.2-0.2l-0.7-27.8l-0.7-27.6h15h14.8v-8.4c0-16.7-16.2-34.9-32.2-35.9
				c-18.5-1.5-23.4,0-32,8.4c-13,13.3-14.8,22.9-13.8,79c0.5,27.1,1.7,52.7,3,56.6c3.9,14.5,19.9,25.8,37.2,25.8
				c10.6,0,13.5-1,19.7-7.4l7.1-7.1l31.5-0.2c21.9,0,31.2,0.7,31.2,2.7c0,1.7-2.5,9.4-5.2,17.5c-5.9,16-22.6,35.4-36.7,42.8
				c-4.7,2.5-10.3,5.9-12.3,7.4C1108.4,4285.7,1071.8,4290.1,1064.4,4286.9z"/>
			<path class="st3" d="M408.4,4167.1c-4.9-5.2-5.9-9.4-6.6-24.6c-0.7-10.6,0-19.7,1.5-21.4c1.7-2,9.4-3,21.9-3h19.2v22.6
				c0,20.7-0.5,22.9-5.9,27.6C429.8,4175.7,416,4175.2,408.4,4167.1z"/>
			<path class="st3" d="M1316.1,4314.5c-2.5-0.5-4.4-2.5-4.4-4.2c0-1.7-3.4-7.9-7.4-13.5c-4.2-5.7-6.9-11.3-6.2-12.5
				c1-1.5,43.1-2.5,109-2.5c81.9-0.2,111-1,122.3-3.4c15.7-3.7,29.8-8.1,35.7-11.6c2-1.2,5.9-3.2,8.6-4.4
				c9.6-4.4,34.4-26.3,45.8-40.4c13.3-16.5,29.3-45.8,29.3-53.9c0.2-3.2,1.7-8.4,3.7-11.8c5.2-9.1,5.2-80.5,0-92.8
				c-2-4.7-3.7-10.6-3.7-12.8c0-6.2-14.5-34.2-25.1-48.2c-15-20.4-40.1-41.6-58.6-49.5c-2-0.7-6.9-3-11.1-4.7
				c-18.7-8.4-33.7-8.9-244.6-9.4l-210.1-0.5l-3.9-5.9c-7.9-11.6-14.8-25.6-13.5-27.8c0.7-1,101.1-2,223.2-1.7
				c206.4,0,223.4,0.2,244.1,4.7c12.3,2.5,26.1,5.9,30.8,7.9c18.2,6.9,44.8,25.1,61.3,41.8c19.9,20.2,32,39.1,47,74.6
				c16.2,38.6,15.7,121.3-1.2,158c-2,4.2-3.7,8.6-3.7,9.8c0,2.5-14.8,30.8-17,32.7c-0.7,0.7-4.2,5.2-7.6,9.8
				c-9.1,13-21.7,26.1-35.7,36.9c-13.8,10.8-44.3,27.1-50.4,27.1c-2.2,0-4.9,1-6.4,2.5c-4.4,4.4-68.9,7.4-157.2,7.1
				C1360.1,4315.7,1318.3,4315.2,1316.1,4314.5z"/>
			<path class="st3" d="M1279.7,4236.2c-1.7-2-4.4-3.7-6.2-3.7c-4.2,0-24.1-21.7-29.8-32.2c-2.5-4.7-6.9-16-10.1-25.3
				c-5.4-16.2-5.7-19.9-5.7-97.7v-81h25.8h25.6l0.7,32.7l0.7,32.5l18.5,0.7c30.3,1.2,28.5,3.2,28.3-33.2v-31.5l26.6-0.7l26.3-0.7
				l0.5,57.3c1.2,115.9-0.7,130.4-22.1,159.4c-4.9,6.4-14,14.3-22.1,18.9c-12.5,7.1-16.2,7.9-34,8.1
				C1287.8,4239.9,1281.9,4238.9,1279.7,4236.2z M1313.6,4173.5c10.3-6.4,13-13.8,14.3-37.4c1.2-22.4,1.5-22.4-28.5-21.2l-18.5,0.7
				l-0.7,19.7c-1,23.1,3.4,34.2,15.3,39.4C1305.3,4179.1,1304.3,4179.1,1313.6,4173.5z"/>
			<path class="st3" d="M1446.8,4234.8c-18.7-10.1-30.3-24.6-37.2-46.5c-8.6-26.6-2.7-54.1,15.5-74.3c15.5-17.2,26.3-21.7,51.7-21.7
				c32.7,0,45.5-10.3,39.6-32.5c-3.2-13-8.6-14.3-61.3-14.3c-55.1,0-50.7,3-49.5-32l0.7-20.9l46.8-0.7c51.9-0.7,62.7,1,80,12.3
				c11.6,7.6,27.1,26.3,27.1,32.2c0,2,1.7,7.6,3.7,12.3c6.6,16.2,3,38.6-10.1,61c-5.4,8.9-25.3,26.8-29.8,26.8
				c-1.5,0-5.9,1.7-9.6,3.7c-4.7,2.5-14.3,3.7-28.3,3.7c-25.8,0-30.5,3.4-30.5,22.1c0,8.1,1.5,13.3,4.7,17c4.4,4.9,7.1,5.2,51.2,5.2
				c29,0,46.3,1,46.5,2.5c0,1.5,0.2,12.8,0.5,25.3l0.2,22.6l-51.7,0.5C1460.1,4239.7,1454.9,4239.2,1446.8,4234.8z"/>
			<path class="st3" d="M120.7,3817.4c-2-0.7-4.4-2.7-5.4-4.2s-2-37.2-2-79.5c0-66.4,0.5-77.3,3.9-80.5c3.2-3.4,11.6-3.9,53.4-3.9
				c27.3,0,51.4,1.2,53.4,2.5c3,1.7,3,3.2,1,6.6c-2.5,3.9-7.6,4.4-46.5,5.2c-28.1,0.2-45,1.7-47.2,3.4c-2.5,2-3.2,9.8-2.7,32.5
				l0.7,29.8l36.9,0.5c43.3,0.7,48,1.5,48,8.1c0,6.6-4.7,7.4-48,8.1l-36.9,0.5l-0.7,23.9c-1,35.7-3.7,34,47,34
				c23.4,0,43.8,1,45.5,2.2c2,1.2,3,4.2,2.5,6.6c-0.7,4.4-3.9,4.7-50,5.2C146.6,3818.7,122.7,3818.2,120.7,3817.4z"/>
			<path class="st3" d="M950,3814.5c-4.7-8.9,1.5-17.5,12.5-17.5c7.4,0,12.1,4.2,12.1,11.1c0,7.4-4.7,11.1-14,11.1
				C955.1,3819.2,951.7,3817.7,950,3814.5z"/>
			<path class="st3" d="M1228,3817.4c-2-0.7-4.4-2.7-5.4-4.2s-2-37.2-2-79.5c0-67.9,0.5-77,3.9-80.7c3.7-3.4,10.1-3.9,50-3.2
				c39.4,0.7,46.8,1.5,53.1,5.4c14.5,9.1,17.2,15.3,17.2,40.1c0,20.4-0.5,23.1-5.9,28.8c-3.4,3.4-7.4,6.4-8.9,6.4
				c-3.7,0-11.1,8.1-11.1,11.8c0,1.7,1.7,3,3.7,3c6.9,0,15.3,11.6,17,23.4c3.7,23.6-3,38.1-21.2,46.3c-7.1,3.4-16.5,4.2-48,3.9
				C1249.2,3818.9,1230,3818.2,1228,3817.4z M1310.7,3800.7c10.8-6.9,13-11.3,13-24.6c0-13-3.2-18.7-15.3-26.6
				c-5.7-3.7-11.6-4.2-39.4-3.7l-32.5,0.7l-0.7,25.8c-1,34.9-0.5,35.4,39.1,34C1297.6,3805.6,1305,3804.4,1310.7,3800.7z
				 M1313.6,3726.4c8.4-4.4,17.7-20.2,17.7-30c0-7.1-9.4-23.9-15.7-28.1c-6.6-4.4-65-7.6-74.6-3.9c-5.4,2-5.7,3.2-5.7,34v32l6.9,0.7
				c3.7,0.5,19.2,0.5,34.7,0.2C1298.9,3731.1,1307,3729.8,1313.6,3726.4z"/>
			<path class="st3" d="M1379.8,3817.7c-1-1-1.7-38.6-1.7-83.7c0-73.3,0.5-82.2,3.9-84.2c2.2-1.2,6.2-1.7,8.9-1
				c4.2,1,4.4,4.7,3.9,85.1l-0.7,83.9l-6.2,0.7C1384.5,3819.2,1380.8,3818.7,1379.8,3817.7z"/>
			<path class="st3" d="M294.2,3767.7c-5.4-2.5-12.1-6.9-14.5-9.8c-6.6-7.4-11.3-6.6-11.3,2.2c0,8.4-5.4,12.1-11.1,7.4
				c-3-2.5-3.7-12.5-3.7-59.3c0-50.9,0.5-56.3,4.4-58.3c9.4-4.9,10.3-1.5,10.3,34c0,37.2,2.5,48.7,13.5,61.3
				c3.7,3.9,11.8,9.1,17.7,11.1c9.4,3.2,12.3,3.2,18.7,0.5c17-7.1,17.7-9.4,18.5-60.5c0.7-42.1,1.2-46.3,5.2-47.5
				c2.5-0.5,6.4,0,8.6,1.2c3.4,2,3.9,7.6,3.9,43.3c0,41.3-3,60.5-10.3,67.7C332.6,3772.4,311.2,3775.4,294.2,3767.7z"/>
			<path class="st3" d="M414.5,3767.5c-5.4-2.5-12.5-7.6-15.3-11.3c-3-3.9-6.4-8.4-7.4-9.6c-1.2-1.5-3.9-10.6-6.2-20.4
				c-3.7-16.2-3.7-19.4-0.5-33.7c6.2-25.8,15.3-37.2,35.9-44.3c13-4.7,23.1-4.7,36.9,0c13,4.7,19.4,9.6,25.6,20.2
				c3.7,6.4,3.9,8.4,1.5,11.6c-4.4,5.4-8.4,4.9-12.5-1.2c-14.5-20.7-28.5-26.1-47.5-18.2c-17,6.9-30.3,31.2-23.6,43.3
				c2,4.2,6.4,4.7,44.8,5.2l42.3,0.7l-0.5,11.8C486.9,3759.4,449.2,3783,414.5,3767.5z M458.1,3753c8.6-7.1,16.5-24.6,13.3-29.8
				c-1-1.5-16-2.5-35.9-2.5h-34.2v6.2c0,8.4,10.6,24.6,18.9,29c3.7,2,11.8,3.7,18,3.9C447,3760.1,451.2,3758.6,458.1,3753z"/>
			<path class="st3" d="M559.5,3767.5c-5.9-2.7-10.6-5.9-10.6-7.4c0-1.2-2.2-2.5-4.9-2.5s-4.9,1.7-4.9,3.7c0,4.4-8.4,9.1-13.3,7.1
				c-3.4-1.2-3.9-9.1-3.9-60s0.5-58.8,3.9-60c2-0.7,5.9-0.2,8.6,1c4.2,2.5,4.7,5.7,4.7,39.4c0,20.2,1,39.4,2.5,42.8
				c1.2,3.4,5.7,9.8,9.8,14.3c6.6,6.9,9.6,8.1,23.4,8.9c12.8,0.7,15.7,2,16.7,5.7C594.7,3772.2,577.9,3775.6,559.5,3767.5z"/>
			<path class="st3" d="M641.2,3767.5c-20.4-9.1-30.8-28.8-30.8-58.3c0-25.1,8.4-42.6,25.3-53.4c5.9-3.7,12.1-4.9,25.1-5.2
				c15.7,0,18.5,0.7,28.1,7.9c5.9,4.4,11.8,7.4,13,6.6c3.2-2,2.2-16.2-2-28.8c-2.7-7.6-6.9-14-12.8-18.5c-7.4-5.7-11.1-6.6-25.1-6.6
				c-14.8,0-17.2,0.7-26.6,8.1c-10.6,8.4-18.2,9.6-19.7,2.7c-1-4.9,6.2-12.8,16.7-18.5c12.5-6.6,50-6.6,60.3,0.2
				c22.9,14.8,24.1,19.7,25.3,96.2c0.7,55.9,0.2,64.5-3,67.2c-5.4,4.4-11.3,1.5-11.3-5.7c0-8.9-3-9.4-11.3-2.5
				C676.3,3772.7,658.9,3775.6,641.2,3767.5z M677.1,3756.7c24.6-10.3,34-43.3,20.7-71.6c-11.1-22.9-34-30.5-53.1-17.5
				c-13.8,9.4-17.7,20.2-16.5,45.5c0.7,18.9,1.5,22.6,7.6,30.5C647.3,3758.9,661.1,3763.3,677.1,3756.7z"/>
			<path class="st3" d="M1052.1,3769.9c-0.7-1.2-3.4-2.5-5.7-2.5c-2.2,0-7.6-3.4-12.1-7.4c-9.1-8.6-13-9.4-13-2.7
				c0,7.9-2.7,12.5-7.4,12.5c-2.5,0-5.2-1.7-5.9-3.9c-0.7-2.2-1.5-28.5-1.5-58.8c0-45.8,0.5-55.4,3.7-57.8c3-2.5,4.4-2.5,7.4,0
				c3,2.5,3.7,10.1,3.7,38.6c0,30,0.7,36.7,4.7,44.5c13.3,26.1,43.6,34,57.3,14.8c4.4-6.4,4.9-10.6,4.7-51.2
				c-0.2-42.3,0-44.3,4.9-46.8c10.6-5.9,12.1-0.5,12.1,44c-0.2,57.1-3.2,67.7-21.9,75.5C1073.5,3772.9,1054.3,3773.6,1052.1,3769.9z
				"/>
			<path class="st3" d="M1590,3765.5c-10.8-5.4-14.8-9.1-20.9-20.2c-6.6-12.3-7.4-15.7-7.4-35.9c-0.2-19.7,0.5-23.9,6.6-36.2
				c7.6-14.8,12.8-19.2,29.3-25.1c15.3-5.2,27.6-4.7,42.3,2.5c15.3,7.1,24.9,18.7,22.6,27.3c-2.2,8.1-9.4,7.4-14.8-1.5
				c-5.7-9.8-21.4-19.7-31-19.7c-17,0-32.5,12.5-38.4,31c-6.4,20.4-5.7,20.7,42.1,20.7c47.7,0,47.7,0,43.3,21.4
				C1656.7,3765.3,1622.2,3782,1590,3765.5z M1637.7,3749c8.9-8.9,11.1-12.5,11.1-19.7v-8.6h-34.4c-39.6,0-40.6,0.5-32,18.2
				c6.6,13.8,17.2,20.7,32.7,20.9C1625.7,3760.1,1627.6,3759.1,1637.7,3749z"/>
			<path class="st3" d="M747.5,3767c-4.2-3.2-4.2-3.9-0.7-10.6c2.2-4.2,3.9-8.9,3.9-10.6s1-4.9,2.5-7.4c1.2-2.2,4.7-9.6,7.4-16.5
				c3-6.6,6.2-14.5,7.4-17.2c1.2-2.7,4.7-11.1,7.4-18.5c3-7.4,6.9-17.2,8.9-21.9c7.1-15,4.4-29.8-7.9-44.3
				c-6.6-7.9-7.4-8.1-19.7-6.6c-10.1,1.2-13,0.7-14.3-2.2c-2.5-6.4,1.2-10.8,9.8-12.5c17.5-3.2,33.2,4.2,40.8,19.2
				c6.9,13.8,14.3,31,14.3,34c0,1.2,1,4.4,2.5,6.9c3.2,5.9,10.8,24.1,16,38.6c2.5,6.9,5.2,13.5,6.2,14.8c1,1.5,3.7,8.1,6.2,14.8
				c2.5,6.9,6.4,17.2,9.1,22.9c5.2,11.6,4.4,17-2,19.4c-4.9,1.7-12.3-6.9-14.8-17.2c-0.7-3.9-3-9.8-4.9-13.5s-3.4-8.6-3.4-10.8
				c0-2.2-1-4.9-2.5-5.7c-1.2-0.7-2.5-3.4-2.5-5.7c-0.2-2.2-2.2-8.6-4.9-14c-2.7-5.4-4.7-11.3-4.9-13c0-4.4-10.3-17.7-12.5-16.5
				c-1,0.7-2.5,5.7-3.4,11.1c-1,5.4-2.7,10.3-3.9,11.3c-1.2,0.7-2.2,3.2-2.2,5.4s-1.7,7.4-3.7,11.3c-2,3.7-3.7,8.1-3.7,9.8
				c-0.2,1.5-2.2,7.1-4.9,12.5c-2.7,5.4-4.7,11.3-4.9,13c0,1.7-1.2,5.4-3,8.6c-1.5,3-3.4,7.1-4.4,9.1
				C758,3769.9,752.6,3770.7,747.5,3767z"/>
			<path class="st3" d="M956.6,3768.2c-1-0.7-1.7-28.1-1.7-60.3c0-50.2,0.5-58.8,3.7-60c2-1,5.4-0.2,7.4,1.5
				c3,2.5,3.7,12.5,3.7,58.8c0,40.1-0.7,56.6-3,58.8C963.5,3770.2,959.1,3770.9,956.6,3768.2z"/>
			<path class="st3" d="M1434.2,3767.2c-3.9-2.2-4.4-6.9-4.4-42.3c0-54.4,4.7-68.7,24.4-77c15.7-6.6,34.7-2.7,48.5,10.1
				c7.6,7.1,12.3,6.9,11.3-0.5c-1-6.6,5.4-11.6,10.8-8.6c3.9,2.2,4.2,7.9,4.2,59.8c0,49.2-0.5,57.8-3.9,59.8
				c-2.7,1.7-4.9,1.5-7.6-0.7c-3.2-2.7-3.9-9.1-3.9-35.7c-0.2-39.1-2.2-48.7-12.5-59.5c-14.8-15.3-35.2-17-46.8-3.9
				c-5.7,6.4-5.9,8.1-6.6,52.2C1446.5,3770.2,1445.5,3773.9,1434.2,3767.2z"/>
		</g>
	</g>
</g>
</svg>
