<?xml version="1.0" encoding="utf-8"?>
<!-- Generator: Adobe Illustrator 23.0.0, SVG Export Plug-In . SVG Version: 6.00 Build 0)  -->
<svg version="1.1" xmlns="http://www.w3.org/2000/svg" xmlns:xlink="http://www.w3.org/1999/xlink" x="0px" y="0px"
	 viewBox="0 0 177.8 166" style="enable-background:new 0 0 177.8 166;" xml:space="preserve">
<style type="text/css">
	.st0{display:none;}
	.st1{display:inline;fill:#707780;}
	.st2{display:inline;}
	.st3{fill:#707780;}
	.st4{display:none;fill:#231F20;}
	.st5{display:none;fill:#707780;}
	.st6{fill:#707780;stroke:#707780;stroke-width:2;stroke-miterlimit:10;}
	.st7{fill:none;}
	.st8{fill:#707780;stroke:#707780;stroke-miterlimit:10;}
</style>
<g id="Layer_1" class="st0">
</g>
<g id="Layer_2">
	<g>
		<g transform="translate(0.000000,807.000000) scale(0.100000,-0.100000)">
			<path class="st3" d="M857.4,7400.1c0-22.3-10.3-38.7-44.6-70.8c-14.1-13.2-22-29.1-23.6-47.5c-0.9-10.5,1-29.8,3.1-31.8
				c0.6-0.6,1.2-2.1,1.2-3.2c0.2-7.4,19.8-32.7,27.2-35c1.2-0.5,2.3-1.2,2.3-1.7c0-0.5,2.6-2.2,5.9-3.7c3.2-1.5,7.4-3.6,9.2-4.7
				c4.2-2.2,9-1.1,5.7,1.2c-1.1,0.9-3.8,4.8-6.1,8.9c-3.8,6.8-4.2,8.2-4.2,17.8c0,13.5,2.2,17.6,16.5,31.7
				c11.1,10.9,15.2,17.5,16.7,26.1c1.1,6.3,2.2,6.9,5.4,2.7c1.4-1.8,7-9.3,12.5-16.8c5.4-7.4,11.2-14.9,12.8-16.6
				c1.6-1.7,4.7-6.4,6.9-10.5c3.8-6.6,4.2-8.2,4.1-17.2c0-8.2-0.5-10.9-3.3-16.2c-3.8-7.3-3-7.5,6-1.4c14.6,9.8,25.8,26.6,30.6,45.5
				c2.3,9.3,2,25.7-0.6,36c-2.2,8.7-11.6,26.1-17.6,32.8c-4.8,5.3-15.7,19.2-29.4,37c-3.1,4.2-7,9.3-8.7,11.3
				c-1.6,2.1-5,6.8-7.6,10.5c-2.6,3.7-5,7-5.5,7.4c-0.4,0.4-2.5,3.1-4.5,6.1c-2.1,3.1-5.3,6.9-7,8.5l-3.2,3V7400.1z"/>
			<path class="st3" d="M1278.5,7191.3c-17.5-2.7-25.5-5.3-35.7-11.4c-3.3-2-6.4-4.1-6.8-4.4s-2-1.6-3.7-2.7
				c-6.8-4.2-19.6-24.1-22.1-34.2c-0.7-2.7-1.8-7.3-2.6-10.1c-2-7.9-0.7-35.8,1.8-44c4.5-13.9,9.6-22.5,19.2-32
				c8.7-8.7,11.6-10.6,22.1-15.2c12.4-5.4,15.4-5.9,36.3-6.5c12.4-0.4,23.7,0,28,0.7c3.8,0.7,10.2,2,14.1,2.7
				c3.8,0.6,7.5,1.7,8.1,2.5c0.7,0.6,2.3,1.1,3.7,1.1c1.5,0,4.9,1.1,7.9,2.5l5.2,2.3v37.5c0,23.7-0.5,37.6-1.2,37.9
				c-0.6,0.2-16.7,0.2-35.7,0l-34.6-0.4l0.4-13.2l0.4-13.2l14-0.4c7.9-0.1,14.9-1,15.7-1.7c2-1.6,2.2-26.9,0.4-30.6
				c-1.1-2-2.7-2.3-9.8-2.3c-9.7,0-22.7,2.7-30.5,6.3c-10.7,4.9-19.1,15.5-24.1,30.6c-2.1,6.1-2.8,32.6-0.9,33.7
				c0.6,0.4,1.5,2.8,2,5.3c1,5.7,7.9,16.1,13.8,21.1c2.5,2.1,7.6,5.3,11.3,7.1c6.3,3.1,8.1,3.4,21.6,3.4c16.5,0,25.3-2.1,34.8-8.2
				c3-1.8,5.8-3.4,6.4-3.4c0.5,0,1.2-0.4,1.5-0.9c0.5-1.4,7.3-5.9,10.1-7c3.7-1.4,4.4,1.2,4.4,16.8c0,14.3-1,19.3-4.1,19.3
				c-0.9,0.1-3.7,1.1-6.4,2.5c-2.7,1.4-6,2.3-7.4,2.5c-1.5,0-3.1,0.5-3.7,1.1c-2.3,2.3-28.4,6.1-40.6,6
				C1288,7192.4,1282,7191.9,1278.5,7191.3z"/>
			<path class="st3" d="M1614.8,7191.3c-9.1-1-19.2-3.1-22.7-4.7c-18-7.9-28-16-32.3-25.9c-5.4-12.5-4.3-31.4,2.3-41.7
				c5.3-8.1,15.1-14.9,28.2-19.4c6-2.1,10.6-3.3,24-5.9c17.3-3.4,21-4.5,25.8-7.9c2.7-1.8,6-5.3,7.4-7.7c2.3-4.4,2.3-4.4,0-9
				c-3.3-5.9-8.9-9-20.7-11.2c-9-1.7-10.9-1.7-22.1,0.2c-16.5,2.7-37.6,11.4-45,18.7c-3.7,3.6-4.4,0.9-4.8-16.7
				c-0.2-16.6-0.2-17.5,2.3-18.7c5.7-3.1,18.3-6.8,34.3-9.8c7.3-1.4,38.6-1.5,44.9,0c18.9,4.2,28.5,8.7,37.7,17.8
				c10.1,10,15.2,22.1,14.1,33.9c-1.2,13.6-3.1,18.3-10.7,25.8c-10.1,10.1-19.9,14.3-48,20.2c-4.4,1-10.7,2.3-14.1,3.1
				c-13,2.7-19.1,7.5-19.1,14.9c0,6.5,1.5,9.1,7.7,13.2c5,3.2,5.7,3.3,23,3.3c20.9,0,26.3-1.5,46-12.8c5.8-3.3,7.4-3.8,8.2-2.5
				c0.6,1,1.1,8.5,1.1,16.6c0,14.1-0.1,15-2.7,16.7c-3.3,2.1-11.1,4.4-20.7,6.1c-3.7,0.6-8.7,1.6-11.1,2.2
				C1641.8,7191.8,1624.1,7192.4,1614.8,7191.3z"/>
			<path class="st3" d="M89.5,7187.5c-0.4-0.9-0.5-35.7-0.4-77.2l0.4-75.6h19.1h19.1l0.6,14.8c0.4,8.1,1.1,15.5,1.6,16.4
				c1.4,2.1,56.2,2.2,58.4,0c1-1,1.5-6.4,1.5-16c0-17.3-1.8-16,22.1-15.5l16.6,0.4v76.9v76.9l-16.6,0.4c-9.1,0.1-17.8,0-19.4-0.4
				l-2.8-0.7l0.6-26.7c0.4-14.6,1-34.7,1.4-44.5c0.7-16,0.5-18-1.4-19.3c-2.8-2-58.4-2.3-62.1-0.4c-2.1,1.2-2.3,2.7-2.3,18.2
				c0,10,0.5,17.5,1.2,18.2c0.9,0.9,1.1,11.1,1,28.3l-0.4,26.9l-18.8,0.4C94.6,7189,89.9,7188.7,89.5,7187.5z"/>
			<path class="st3" d="M270.1,7187.4c-0.4-1-0.5-27.4-0.2-58.8c0.2-44.9,0.7-57.8,2.1-60.7c0.9-2,2.7-6,4.1-9
				c4.9-10.6,17.1-19.8,34.2-26.1c5.7-2.1,42.3-3.1,49.4-1.5c17,4.1,20.7,5.7,28.6,11.8c6.8,5.3,9.8,9,13.5,16.1
				c5.9,11.8,6,13.8,6.1,73.2v55.9h-19.1h-19.1l-0.6-54.7c-0.6-57.5-0.7-58.8-6.5-66.5c-5.2-7.1-19.4-10.9-32.1-8.6
				c-8.4,1.6-13.3,4.7-17.7,11.7l-3.3,5l-0.4,55.9c-0.2,41.8-0.7,56.1-1.8,56.8c-0.9,0.5-9.3,1-19.1,1
				C274.8,7189,270.6,7188.6,270.1,7187.4z"/>
			<path class="st3" d="M449.5,7188.1c-2.2-0.9-2.3-151.6-0.1-153.8c1-1,6.6-1.5,17.1-1.5c13,0,15.7,0.4,16.4,2
				c0.4,1.1,0.7,24.6,0.7,52.1c0,27.7,0.4,50.5,1,50.8c1.1,0.7,5.3-2.7,7.3-5.9c6.3-10.3,19.8-32.2,21.3-34.6c1-1.5,5-8,9-14.3
				c3.8-6.3,12.2-19.7,18.4-29.9l11.3-18.4h19.1H590v76.9v76.9l-14.8,0.4c-8.1,0.1-16,0-17.5-0.4l-2.8-0.6l-0.2-42.2
				c-0.4-47.8-0.6-48.4-8.7-35c-2.5,4.3-7.3,11.9-10.6,17c-3.3,5-8.5,13-11.3,17.8c-3,4.7-5.8,9.1-6.3,9.8
				c-1.1,1.2-8.2,12.3-17.3,26.8l-4.5,7l-22.4-0.1C461.1,7188.9,450.3,7188.5,449.5,7188.1z"/>
			<path class="st3" d="M635.5,7187.5c-0.4-0.9-0.5-35.7-0.4-77.2l0.4-75.6h18.4h18.4l0.6,24.7c0.6,23.7,0.7,24.8,3.7,29.3
				c2.6,3.8,7.9,7,9.1,5.5c0.2-0.2,10.5-13.9,22.7-30.2L731,7034h23.2c12.8,0,23.2,0.4,23.2,0.9c0,0.9-11.6,16.4-15.9,21.1
				c-1.4,1.6-2.6,3.3-2.6,3.7c0,0.4-1.2,2.1-2.8,3.8c-4.2,4.5-40.2,52.4-40.2,53.4c0,1,13.6,17.7,21.1,25.8c3.1,3.4,8.1,9.3,11.1,13
				c2.8,3.7,6.6,8.1,8.2,9.8c1.6,1.7,5.9,6.8,9.5,11.3c3.7,4.5,7.1,8.6,7.9,9c3.6,2.2-2.1,3.1-20.8,3.1h-20.5l-4.3-4.5
				c-2.3-2.6-7-8.2-10.3-12.7c-3.3-4.4-6.4-8.2-6.8-8.6c-0.4-0.4-3.7-4.4-7.4-9.2c-3.7-4.7-7.3-9.2-8-10c-0.6-0.7-4.8-6.1-9.2-11.9
				c-5.9-7.9-8.6-10.6-10.5-10.3c-2.3,0.2-2.5,1.2-2.8,32.8c-0.2,24.1-0.7,32.7-1.8,33.4C668.8,7189.7,636.1,7189.2,635.5,7187.5z"
				/>
			<path class="st3" d="M841.2,7186.3c-1-1.6-2.2-4.2-2.7-5.9c-1.6-5.4-12.2-33.8-13.2-35c-0.4-0.6-1.2-3.2-1.7-5.5
				c-0.5-2.3-1.7-5.4-2.6-6.8c-1-1.4-1.7-3.6-1.7-5.2c0-1.5-0.5-3-1.1-3.4c-0.6-0.4-1.5-2.3-2-4.4c-0.5-2.1-1.6-5.2-2.6-7
				s-1.7-3.9-1.7-4.8s-0.7-3.3-1.7-5.5s-2.7-6.5-3.8-9.6c-1.2-3.1-3-7.3-3.8-9.5c-1-2.1-1.7-4.7-1.7-5.7c0-1.1-0.5-2.2-1.1-2.7
				c-0.6-0.4-1.6-2.5-2.1-4.5c-0.4-2.2-1.2-4.8-1.7-5.9c-2.3-4.3-9.8-26.3-9.8-28.4c0-2.3,1-2.3,18.8-2.1l18.7,0.4l4.4,13.2
				c2.5,7.4,5.2,14.1,6,15.1c1.2,1.6,6.1,1.8,30.1,1.8c31.7,0,31.4,0.1,33.2-8.6c0.5-2.3,1.2-4.8,1.6-5.5c0.5-0.6,2-4.5,3.3-8.6
				l2.6-7.4l18.9-0.4c11.1-0.1,19.3,0.1,20,0.9c0.9,0.9,0.6,2.2-0.6,4.1c-1.1,1.6-2.3,4.8-2.8,7.1c-0.5,2.3-1.4,5-2,6.1
				c-2.5,4.5-11.4,28.9-12.9,34.8c-0.4,1.8-1.2,3.7-1.8,4.1c-0.6,0.4-1.1,1.6-1.1,2.7s-0.7,3.6-1.7,5.4c-1,1.8-2.1,4.9-2.6,7
				s-1.4,4.1-2,4.4c-0.6,0.5-1.1,1.7-1.1,2.8s-0.9,3.7-1.8,5.7c-1,1.8-1.8,4.1-1.8,4.7c0,0.7-0.7,3-1.7,5c-0.9,2.2-3,7.5-4.4,11.9
				c-1.6,4.4-3.3,8.6-3.8,9.2c-0.5,0.7-1.2,3.3-1.7,5.9c-0.5,2.5-1.4,4.9-2,5.3s-1.1,1.5-1.1,2.6c0,1-0.7,3.6-1.7,5.7
				c-0.9,2.2-2.6,6.4-3.8,9.5c-1.1,3.1-2.5,6.4-3.1,7.4c-0.7,1.5-4.8,1.8-23,2.2C843.3,7189,842.9,7189,841.2,7186.3z M867.6,7142.7
				c0.5-2,1.5-4.7,2.1-6s2.3-6.3,3.8-11.1c1.5-4.7,3.2-9.1,3.8-9.7c0.5-0.7,1-2.3,1-3.7c0-1.5,0.9-4.2,2-6.3c1-2,2-5.9,2.1-8.6
				l0.2-4.9h-18.4c-18.3,0-18.4,0-18.8,2.8c-0.2,1.6,0.5,4.7,1.5,7c1.1,2.2,2,5.2,2,6.5c0,1.5,0.5,2.8,1.1,3.2
				c0.6,0.4,1.5,2.8,2,5.3c0.5,2.6,1.2,5.3,1.7,5.9c0.5,0.7,2.2,5.4,3.8,10.5C861.8,7147.3,865.3,7150.4,867.6,7142.7z"/>
			<path class="st3" d="M971.6,7187.9c-0.2-0.7-0.4-35.7-0.1-77.6l0.2-76.2h19.1h19.1v26.8c0,19.2,0.4,27.2,1.5,28.3
				c2,2,18.9,2,20.7,0c0.7-0.9,10-13.2,20.4-27.4c10.6-14.1,19.9-26.2,20.7-26.7c1.8-1.2,46.2-1.2,46.2,0c0,0.6-1,2.1-2.2,3.4
				c-1.2,1.2-5.5,6.9-9.7,12.3c-4.2,5.5-8.5,10.8-9.5,11.8c-1,1-3.3,4.1-5.3,6.8c-5.9,8.5-20.4,26.8-21.5,27.2
				c-2.3,1-0.6,3.7,4.8,7.1c8.7,5.4,17.3,14.8,20.9,22.5c2.7,6,3.2,8.6,3.2,19.8c0,10.9-0.4,13.6-2.7,18.3
				c-5.3,10.2-13,16.1-29.6,22.3C1062,7188.7,972.3,7189.8,971.6,7187.9z M1044.9,7160.8c4.2-1,7.5-2.7,10.5-5.7
				c4.2-4.2,4.3-4.5,4.3-14.1c0-9.5-0.1-9.8-4.3-14.1c-7.1-7.5-10-8.4-27.1-9c-12.9-0.5-15.7-0.2-17.1,1.4c-2.3,3-1.5,41.1,1.1,42.8
				C1014.7,7163.5,1036.4,7162.7,1044.9,7160.8z"/>
			<path class="st3" d="M1433.2,7187.5c-0.6-0.9-2.1-4.7-3.3-8.4s-3-8.5-3.9-10.7c-1-2.1-1.7-4.7-1.7-5.7c0-1.1-0.5-2.2-1.1-2.7
				c-0.6-0.4-1.5-2.3-2-4.4s-1.6-5.2-2.6-7c-1-1.8-1.7-4.3-1.7-5.4s-0.5-2.3-1.1-2.8c-0.6-0.4-1.5-2.3-2-4.4s-1.6-5.2-2.6-7
				c-1-1.8-1.7-4.3-1.7-5.4s-0.5-2.3-1.1-2.7c-0.6-0.4-1.5-2.2-1.8-4.1c-0.9-3.6-7.5-22.5-9.5-26.8c-2.1-4.7-12.4-32-13-34.4
				c-0.4-1.4-1.4-4.2-2.3-6.4c-1-2.1-1.7-4.3-1.7-5c0-0.6-0.7-2.7-1.7-4.5c-3.3-6.3-2.1-6.8,17.1-6.8c19.1,0,21.5,0.7,21.5,6.8
				c0,1.6,0.5,3.2,1.1,3.6c0.6,0.4,1.5,2.6,1.8,4.9c0.5,2.5,1.6,5.9,2.6,7.7c1,1.8,1.8,4.1,1.8,4.9c0,3.3,5.4,4.1,31.8,4.1
				c26.8,0,30.9-0.4,30.9-2.7c0-0.7,0.7-3,1.7-5c1-2.2,3-7.7,4.5-12.5c1.5-4.7,3.6-9.3,4.5-10.1c1.4-1.1,7.5-1.6,20.3-1.6h18.4
				l-0.9,3.9c-0.4,2.1-1.6,5.5-2.6,7.5c-1,2.1-1.8,4.3-1.8,5c-0.1,0.7-1.1,3.6-2.5,6.3s-2.3,5.9-2.5,7c0,1.1-0.5,2.5-1.2,2.8
				c-0.6,0.4-1.2,1.7-1.2,2.8c-0.1,1.1-1.1,4.3-2.5,7s-2.3,5.7-2.5,6.5c0,0.9-0.5,2.5-1.1,3.7c-0.6,1.1-3.2,7.9-5.7,15
				s-5,14-5.7,15.4c-0.6,1.4-2.2,5.5-3.6,9.2s-3,7.9-3.6,9.2c-2,4.5-8.6,23.4-9.5,26.8c-0.4,1.8-1.2,3.7-1.8,4.1
				c-0.6,0.4-1.1,1.6-1.1,2.7c0,1.1-0.7,3.6-1.7,5.3c-0.9,1.7-2,4.7-2.5,6.5c-0.5,2-1.7,4.8-2.8,6.4c-1.8,3-2.1,3-23.7,3
				C1440.2,7189,1434.1,7188.6,1433.2,7187.5z M1458.7,7143.5c1.4-2.6,2.5-5.4,2.5-6.3c0-0.7,0.7-3.1,1.7-5.2
				c1-2.2,3.1-7.7,4.5-12.5c1.5-4.7,3.2-9.1,3.8-9.7c0.5-0.7,1-2.3,1-3.7c0-1.5,0.9-4.2,1.8-6.1c4.1-7.6,3-8.1-17.8-8.1
				c-16.6,0-19.7,0.5-19.7,3.1c0,2,9.3,30.6,11.8,35.9c1,2.1,1.7,4.4,1.7,5c0,1.7,4.7,12.5,5.4,12.5
				C1455.9,7148.4,1457.3,7146.2,1458.7,7143.5z"/>
		</g>
	</g>
</g>
</svg>
