<?xml version="1.0" encoding="utf-8"?>
<!-- Generator: Adobe Illustrator 23.0.0, SVG Export Plug-In . SVG Version: 6.00 Build 0)  -->
<svg version="1.1" xmlns="http://www.w3.org/2000/svg" xmlns:xlink="http://www.w3.org/1999/xlink" x="0px" y="0px"
	 viewBox="0 0 177.8 166" style="enable-background:new 0 0 177.8 166;" xml:space="preserve">
<style type="text/css">
	.st0{display:none;}
	.st1{display:inline;fill:#707780;}
	.st2{display:inline;}
	.st3{fill:#707780;}
	.st4{display:none;fill:#231F20;}
	.st5{display:none;fill:#707780;}
	.st6{fill:#707780;stroke:#707780;stroke-width:2;stroke-miterlimit:10;}
	.st7{fill:none;}
	.st8{fill:#707780;stroke:#707780;stroke-miterlimit:10;}
</style>
<g id="Layer_1" class="st0">
</g>
<g id="Layer_2">
	<g>
		<g transform="translate(0.000000,1275.000000) scale(0.100000,-0.100000)">
			<path class="st8" d="M855.5,12616.8c-4.4-0.7-15.7-1.7-25-2.4c-9.5-0.7-18.9-1.8-20.8-2.6c-2.1-0.8-6.2-1.5-9.1-1.5
				c-3,0-8.4-0.8-12.1-1.8c-8.2-2.4-18.7-4.5-28.6-5.9c-4-0.7-8.6-1.7-10.2-2.6c-1.5-0.8-3.8-1.5-5.1-1.5c-1.3,0-4.1-0.9-6.2-2
				c-2-1.1-5-2-6.6-2c-1.5-0.1-4.2-0.9-6.1-2c-1.8-1.1-4.9-1.8-6.7-2c-1.8,0-4.5-0.9-5.9-2c-1.3-1.1-3.8-2-5.4-2
				c-1.7,0-6.9-1.7-11.3-4c-4.6-2.1-9.1-4-9.9-4s-3-0.8-5.1-1.8c-10-5-21.6-10-23.3-10c-0.9,0-2.5-0.9-3.4-2s-2.8-2-4.1-2
				s-2.6-0.5-3.2-1.2c-0.4-0.8-3.8-2.8-7.6-4.7c-3.7-1.8-10.4-5.4-14.8-7.9c-4.4-2.5-8.8-4.9-9.9-5.4c-1.1-0.5-10.5-6.6-21-13.6
				s-19.9-13.2-21.1-14c-3.4-2.1-12.5-9.1-13.3-10.2c-0.4-0.5-2.9-2.6-5.5-4.6c-24.3-18.9-56.7-49.6-71.6-68.2
				c-2.9-3.6-6.3-7.6-7.8-9.2c-1.3-1.5-5-6.2-8.3-10.4c-3.2-4.1-7.6-9.5-9.8-11.7c-2.1-2.4-3.8-4.7-3.8-5.4s-1.7-3.4-4-6.2
				c-2.1-2.8-4-5.4-4-5.9s-1.7-3.2-4-5.9c-2.1-2.8-4-5.4-4-5.9s-1.6-3.2-3.6-5.8c-4.6-5.9-6.1-8.3-10.4-16.6
				c-1.8-3.6-5.4-10.2-7.8-14.5c-2.5-4.4-6.1-11.1-7.9-14.8c-2-3.8-4-7.3-4.7-7.6c-0.7-0.5-1.2-2-1.2-3.3s-0.8-4.1-1.8-6.2
				c-4-7.9-12.3-27.4-15.7-36.7c-4.2-11.9-5.1-14.8-6.2-19.1c-0.5-2.5-1.8-6.7-2.8-9.2c-0.8-2.5-2.4-6.9-3.4-9.6
				c-0.9-2.6-1.7-6.1-1.7-7.4s-0.9-4.2-2-6.2c-1.1-2.1-2-6.3-2-9.2c0-3-0.9-7.6-2-10.2c-1.1-2.6-2-7.4-2-10.5s-0.7-6.3-1.3-7
				c-0.8-0.8-2-6.6-2.6-12.8c-0.7-6.3-1.6-12-2-12.8c-1.7-2.8-3.7-39.9-3.7-69.9c0.1-38.9,2.9-74.8,7.1-91.6c0.8-2.9,1.8-9,2.5-13.4
				c0.7-4.6,1.8-9.5,2.6-10.8c0.7-1.5,1.3-4.6,1.3-7c0-4,1.2-8.8,5.5-21.5c0.7-2.1,1.8-6.3,2.5-9.2c0.8-2.9,1.8-5.8,2.6-6.5
				c0.7-0.8,1.2-2.8,1.2-4.6c0-2,0.9-5.1,2-7.3c1.1-2,2-4.6,2-5.7c0-1.1,0.9-4.1,2.1-6.7c1.1-2.8,2.9-6.9,3.8-9.2
				c1.1-2.4,2.8-6.2,3.8-8.6c0.9-2.2,3.7-9,6.1-14.8c2.2-5.8,4.7-11.5,5.4-12.5s1.6-2.9,2-4s1.2-2.9,1.8-4c0.7-1.1,2.8-4.9,4.6-8.6
				c1.8-3.6,5.4-10.2,7.9-14.5s5.3-9.6,6.3-11.9c3-6.3,24.5-37.8,26.4-38.6c0.5-0.3,0.9-1.1,0.9-1.8c0-1.3,7-10.9,9.8-13.6
				c0.8-0.7,4.6-5.4,8.6-10.4c11.3-14.5,11.7-14.9,33.8-37.7c11.6-12,23.7-23.9,26.9-26.4c3.3-2.5,6.9-5.5,7.9-6.7
				c1.2-1.1,5.8-4.9,10.4-8.3c4.6-3.6,9.9-7.8,11.7-9.5c2.9-2.8,20.8-15.4,27.8-19.6c1.1-0.7,5.5-3.8,9.9-6.9
				c4.4-3.2,8.6-5.7,9.6-5.7c1.1,0,1.8-0.5,1.8-1.2s1.6-1.8,3.7-2.6c2-0.8,8.3-4.1,14.1-7.4c10.5-5.8,29.4-15.3,36.9-18.5
				c6.7-2.9,12.9-5.5,18.5-8c12.8-5.7,21-8.7,31.6-11.7c4.4-1.3,9.9-3.2,12.3-4.1c2.4-1.1,5.4-1.8,6.7-1.8c1.3,0,4.2-0.9,6.2-2
				c2.1-1.1,5.1-2,6.6-2c1.6,0,5-0.9,7.5-2c2.6-1.1,7-2,9.5-2c2.6,0,6.1-0.7,7.6-1.6c1.6-0.8,6.3-2,10.8-2.5
				c4.4-0.5,10.9-1.6,14.5-2.4c24.5-4.9,50.8-7,88.3-7.1c28.5,0,60.5,2,69.9,4.2c2.9,0.8,8.2,1.5,11.6,1.5c3.4,0,8.4,0.9,11.1,2
				c2.5,1.1,6.7,2,9.4,2c2.5,0,7.6,0.8,11.3,1.8c3.7,1.1,10,2.5,14,3.4c13.4,2.6,20,4.6,30.1,8.7c2.4,1.1,5.7,1.8,7.3,1.8
				s4.6,0.9,6.7,2c2,1.1,4.6,2,5.7,2s4.1,0.9,6.7,2.1c2.8,1.1,6.7,2.8,8.8,3.7c2.2,0.9,6.1,2.6,8.6,3.7c2.5,1.2,7.9,3.4,11.9,4.9
				c9.9,4,13.4,5.5,15.8,6.9c1.1,0.7,2.9,1.6,4,2s2.9,1.2,4,1.8c1.1,0.7,5,2.8,8.6,4.6c3.7,1.8,10.2,5.4,14.5,7.9
				c4.4,2.5,9.4,5.1,11.2,5.9c3.6,1.7,47.6,30.7,50.4,33.2c0.9,0.9,6.2,5.3,11.6,9.6c5.4,4.4,10.8,8.7,11.9,9.9
				c1.2,1.1,5,4.4,8.6,7.1c10,7.9,38.2,36,45.9,45.6c3.8,4.6,8.6,10.3,10.5,12.5c2.1,2.1,6.6,7.5,9.9,11.9c3.3,4.4,6.7,8.6,7.6,9.2
				c0.8,0.8,7.4,10.2,14.5,20.8c16.7,25.2,16.9,25.4,21.1,33.2c9,17.1,11.2,21.1,12.4,22.3c0.7,0.7,1.3,2.4,1.3,3.7s0.4,2.4,1.1,2.4
				c1.1,0,4,6.1,12.9,27c1.1,2.5,2.8,6.6,4,9.2c1.1,2.5,2.9,6.9,4,9.5c1.2,2.8,3,6.7,4,8.7c1.1,2.1,1.8,4.7,1.8,5.8
				c0,2.2,3.4,13.3,6.2,19.8c0.9,2.2,1.7,5.3,1.7,6.7s0.9,4.4,2,6.3c1.1,2.1,2,4.9,2,6.2s0.7,3.7,1.6,5.3c0.8,1.6,1.8,6.3,2.5,10.8
				c0.5,4.4,1.6,10.4,2.4,13.6c3.7,14.4,4.4,17.4,5.4,27.6c0.5,5.9,1.5,11.5,2,12.4c0.5,0.8,1.5,8.7,2.1,17.5
				c0.5,8.7,1.7,24,2.5,33.8c1.5,17.7,1.2,22.1-2.6,73.2c-0.7,8.7-1.8,17.9-2.6,20.4c-0.7,2.5-1.3,7.3-1.3,10.5
				c-0.1,3.3-0.9,8.3-2,11.2c-1.1,2.9-2,7.3-2,9.6s-0.9,6.5-2,9.1c-1.1,2.5-2,7-2,9.9s-0.8,7.1-1.8,9.4c-1.1,2.4-2.1,5.7-2.5,7.5
				s-1.3,5.3-2.1,7.6c-3.7,10.9-4.4,13.2-5.5,18.1c-0.8,2.9-1.8,5.8-2.6,6.5c-0.7,0.8-1.2,2.6-1.2,4.4s-1.7,6.7-3.7,11.2
				c-2.1,4.6-4.9,10.9-6.2,14.2c-1.2,3.3-3.2,8-4.4,10.5c-1.1,2.5-2.6,6.5-3.6,8.6c-2.9,6.6-7.3,15.4-11.9,23.7
				c-2.4,4.4-5.9,10.9-7.8,14.5c-5.5,10.4-11.6,21.1-12.5,21.8c-0.4,0.4-1.3,1.6-2.1,2.9c-9,14.9-35.6,51.4-40.7,55.8
				c-0.8,0.8-4.4,4.9-7.6,9.2c-7.1,9.1-46.3,48.1-55.1,54.8c-3.3,2.4-6.5,5.1-7.3,5.9c-4,4.6-32.7,26-43.9,32.8
				c-1.3,0.8-2.5,1.6-2.9,2c-1.8,1.8-9.2,6.6-10.4,6.6c-0.7,0-1.5,0.5-1.7,1.1c-0.4,1.2-12.3,8.3-22.1,13.3c-3.3,1.7-9.5,5-13.8,7.4
				c-11.6,6.5-21,10.9-33.2,16.1c-4.4,1.7-9.6,4-17.8,7.5c-4.1,1.7-8.7,3.4-19.5,7.4c-2.5,0.8-6.1,1.8-7.9,2.2
				c-1.8,0.4-5.1,1.5-7.5,2.5c-2.2,1.1-5.5,1.8-7.3,1.8c-1.6,0-4.2,0.9-5.5,2c-1.5,1.1-4.1,2-5.8,2c-1.7,0-4.4,0.7-5.8,1.5
				c-1.6,0.9-6.2,2-10.2,2.6c-9.9,1.5-20.4,3.7-28.3,5.9c-3.4,1.1-8.6,1.8-11.2,1.8c-2.6,0-7.1,0.7-10,1.3c-2.9,0.8-12.9,2-22.4,2.6
				c-9.4,0.8-20.4,1.8-24.4,2.5C906.5,12618.4,866.2,12618.2,855.5,12616.8z M918.8,12612.8c2.9-0.7,13.1-1.8,22.4-2.4
				c18.6-1.3,31.9-3.3,42.1-6.2c3.4-1.1,8.3-1.8,10.7-1.8c2.4,0,6.5-0.9,9-2c2.6-1.1,7-2,9.8-2c2.8-0.1,6.5-0.9,8.3-2
				c1.8-1.1,4.6-1.8,6.2-2c1.6,0,4.9-0.8,7.3-1.8c6.7-2.8,13.1-4.9,18.2-6.1c4.5-1.1,8.6-2.4,19.1-6.3c5-1.8,7.3-2.8,18.7-7.8
				c11.2-4.9,21.4-9.2,24.1-10.2c1.1-0.4,3-1.3,4.4-2.1c1.2-0.7,3.3-1.8,4.6-2.5c4.9-2.8,15.8-8.7,23.3-12.9
				c4.4-2.4,9.1-4.9,10.5-5.7c8.8-4.5,53.9-36.1,59.7-41.8c0.9-0.9,5.4-4.5,9.9-7.8c10.5-8,58.1-55.4,64.6-64.2
				c2.6-3.8,6.2-8.3,7.9-10.2c8.6-9.4,42.1-57.7,43.8-63.3c0.5-1.5,1.5-2.6,2.1-2.6s1.2-1.2,1.2-2.5c0-1.5,0.5-2.9,1.2-3.4
				c0.8-0.4,2.9-3.8,4.7-7.6c6.2-12.3,11.2-21.2,12.5-22.5c0.7-0.7,1.3-2.1,1.3-3s1.7-5.4,3.8-9.9c2-4.6,5.7-13.1,7.9-18.9
				c2.4-5.8,5.1-12.3,6.2-14.2c1.1-2.1,1.8-4.7,1.8-5.9s0.9-4,2-6.1c1.1-2,2-5,2-6.6c0-1.5,0.9-4.5,2-6.6c1.1-2,2-4.6,2-5.7
				s0.8-3.8,1.8-6.1c2.4-5.8,4.7-14.6,6.2-24c0.7-4.2,1.8-8.4,2.5-9.1c0.8-0.8,1.3-3.8,1.3-6.9s0.8-8.4,1.8-11.9
				c2.8-9.4,4.7-24,6.1-43.4c0.7-9.4,1.8-19.5,2.5-22.4c1.8-7,1.8-54.1,0.1-60c-0.8-2.5-2-12.7-2.6-22.4c-1.3-21.1-3.6-37-6.1-43.9
				c-1.1-2.6-1.8-7.3-1.8-10s-0.9-7.3-2-9.8c-1.1-2.6-2-6.9-2-9.4c0-2.4-0.9-6.2-2-8.2c-1.1-2.1-2-5.1-2-6.7s-0.8-4.9-1.8-7.3
				c-2.8-6.7-4.9-13.1-6.1-18.2c-1.3-5.9-6.2-19.6-10.2-28.6c-0.9-2.4-2.6-6.3-3.8-9c-1.1-2.5-2.8-6.6-4-9.2
				c-6.6-15.4-7.9-18.3-16-33c-2.4-4.4-5.8-10.8-7.6-14.5c-4.4-8.4-5-9.6-13.8-23.1c-4-6.2-7.8-12.3-8.6-13.4
				c-4.7-7.8-24.4-34.1-28.3-38c-0.4-0.4-4.6-5.4-9.5-11.3c-4.7-5.8-17.3-19.1-27.8-29.7c-19.9-19.8-21.2-21-31.9-29.5
				c-3.6-2.8-7.1-5.8-7.9-6.5c-2.1-2.2-20.8-17.1-23.3-18.6c-1.2-0.7-10.7-7-21.1-14s-19.8-13.1-20.8-13.4c-1.1-0.5-3-1.5-4.2-2.2
				c-1.3-0.7-3.4-2-4.6-2.6c-1.3-0.8-3.8-2-5.7-2.8c-1.7-0.7-3.6-1.7-4-2.2s-5.1-3.2-10.5-5.9c-5.4-2.8-10.8-5.4-11.9-6.1
				c-7.6-4-11.1-5.4-13.2-5.4c-1.2,0-3-0.9-4-2s-2.8-2-4-2c-1.3,0-4.1-0.8-6.2-1.8c-2-0.9-6.1-2.8-9-4.1c-2.9-1.2-7-3-9-4.1
				c-2.1-1.1-5-1.8-6.6-1.8c-1.6-0.1-4.4-0.9-6.2-2c-1.8-1.1-4.5-1.8-5.9-2c-1.5,0-4.4-0.9-6.5-2c-2-1.1-5-2-6.6-2
				c-1.5,0-4.5-0.9-6.6-2c-2-1.1-5-2-6.6-2c-1.5-0.1-4.2-0.9-6.1-2c-1.8-1.1-5.8-1.8-8.8-2c-3,0-7.1-0.7-9.2-1.6
				c-2-0.8-6.6-1.8-10.3-2.4c-3.6-0.5-9.2-1.6-12.5-2.4c-8.4-2.1-26-4.4-42.8-5.5c-7.9-0.7-21.5-1.7-30.2-2.5
				c-15.3-1.5-18.7-1.3-68,2.5c-18.3,1.5-36.7,4-44,6.1c-3.4,1.1-8,1.8-10,1.8c-2,0-6.2,0.9-9.2,2c-3,1.1-7.8,2-10.5,2
				c-2.8,0-6.7,0.9-8.7,2c-2.1,1.1-5.1,2-6.6,2c-1.6,0-4.6,0.9-6.6,2c-2.1,1.1-5.3,2-7.1,2c-1.8,0-4.5,0.9-5.8,2c-1.5,1.1-4,2-5.5,2
				c-1.6,0-4.6,0.9-6.6,2c-2.1,1.1-5.1,2-6.7,2s-4.5,0.8-6.6,1.8c-4,2-11.9,5.5-18.2,8.2c-2.1,0.8-6.2,2.5-8.8,3.7
				c-2.8,1.2-7,2.9-9.2,4c-5.9,2.4-22.5,10.8-32,16.1c-4.4,2.4-10.8,5.9-14.5,7.8c-7.1,3.7-11.5,6.2-12.5,7.3
				c-1.8,1.8-9.2,6.6-10.4,6.6c-0.7,0-1.5,0.4-1.7,1.1c-0.5,1.1-8.6,6.9-9.6,6.9c-0.4,0-1.5,0.5-2.4,1.3c-0.9,0.7-8,6.1-15.8,11.9
				c-7.8,5.9-15.3,11.7-16.5,12.9c-1.3,1.3-6.7,5.8-12.1,10.2c-12,9.8-44,41.7-51.9,51.8c-3.2,4.1-7.5,9.4-9.6,11.5
				c-2,2.2-6.9,8.2-10.8,13.2c-4,5.1-7.6,9.5-8.3,9.6c-0.5,0.3-1.1,1.1-1.1,1.7c0,1.2-4.7,8.6-6.6,10.4c-0.4,0.4-1.2,1.6-2,2.9
				c-0.7,1.2-4.2,6.5-7.9,11.9c-7.6,11.3-8.6,12.8-13.2,21.5c-2,3.7-5.4,10.2-7.9,14.5c-7.6,13.8-17.8,34.3-17.8,35.9
				c0,0.8-0.8,3.2-1.8,5.3c-0.9,2-2.8,5.9-4,8.7c-1.1,2.6-2.9,7-4,9.5c-1.2,2.6-2.9,6.6-3.8,9c-1.1,2.2-2.9,7.8-4.2,12.1
				c-1.2,4.4-3,9.9-4.1,12.3c-1.1,2.4-1.8,5.4-1.8,6.9s-0.8,4.5-1.8,6.9c-3.3,8.2-6.1,17.9-6.1,21.9c0,2.1-0.8,6.9-1.8,10.3
				c-2.8,9.5-4.7,19.6-6.1,31c-0.7,5.4-1.8,12.5-2.5,15.8c-0.8,3.2-1.5,10-1.5,15c0,5.1-0.9,14.6-2,21.1
				c-2.2,13.8-2.5,43.4-0.5,56.7c0.8,5.1,1.8,15.8,2.5,23.7c1.5,20.7,3.8,38.6,6.1,45.5c1.1,3.3,1.8,7.8,1.8,9.9
				c0,2.2,0.9,6.3,2,9.2c1.1,2.9,1.8,7.6,2,10.5c0,2.9,0.9,6.7,2,8.6c1.1,1.8,1.8,4.6,2,6.1c0,1.6,0.9,4.6,2,6.6
				c1.1,2.1,2,5.3,2,7.1s0.9,4.5,2,5.8c1.1,1.5,2,4.1,2,5.9c0.1,1.8,0.9,4.9,2,6.7c1.1,1.8,1.8,4.6,2,6.2c0,1.6,0.8,4.5,1.8,6.6
				c1.1,2,2.8,5.8,3.8,8.3s2.9,6.7,4,9.2c1.1,2.5,2.9,6.7,4,9.2c1.1,2.5,2.9,6.7,4,9.2c2.6,6.1,9.1,19,13.2,26.4
				c1.8,3.3,5.8,10.5,8.7,16.2c3,5.7,8.2,14.4,11.7,19.5c3.4,5.1,7.1,10.7,8.2,12.4c10,15.6,21.2,30.7,27.9,38
				c2.1,2.2,6.6,7.8,10,12.1c7.9,10.5,47.2,49.6,59.6,59.3c5.4,4.4,10.8,8.8,11.9,9.9c3.2,3.2,23.5,18.5,24.4,18.5
				c0.5,0,3.2,1.6,5.8,3.7c2.6,2,5.8,4.2,7,4.9c1.2,0.8,6.5,4.2,11.9,7.9c5.3,3.6,12.3,7.9,15.6,9.6c3.3,1.7,9.5,5,13.8,7.5
				c4.4,2.4,10.9,5.9,14.5,7.8c3.7,2,7.5,4,8.6,4.6c1.8,0.9,7,3.3,16.5,7.4c2.2,0.9,8.7,3.6,14.5,5.9c5.8,2.2,12.4,4.9,14.5,5.8
				c6.9,2.9,13.1,5,17.8,5.9c2.5,0.5,5.9,1.7,7.5,2.5c1.6,0.9,4,1.6,5.3,1.6s4.1,0.9,6.2,2c2,1.1,5,2,6.6,2c1.5,0.1,4.2,0.9,6.1,2
				c1.8,1.1,5.5,1.8,8.3,2c2.8,0,7.1,0.9,9.8,2c2.5,1.1,6.6,2,9,2c2.4,0,7.3,0.8,10.7,1.8c9.9,2.9,23.2,4.7,42.1,6.1
				c9.5,0.8,19.2,1.8,21.8,2.5C858.5,12614.4,912.3,12614.5,918.8,12612.8z"/>
			<path class="st3" d="M843,12581.2c-4-0.5-13.4-1.6-21.1-2.4c-7.6-0.7-15.6-1.8-17.8-2.6c-4-1.3-12.8-3-27.7-5.4
				c-4.4-0.8-9.4-1.8-11.2-2.5c-1.8-0.7-7.8-2.5-13.2-4.1s-11.1-3.3-12.5-3.8c-5.4-2.1-16.2-5.4-17.7-5.4c-0.9,0-4.4-1.2-7.8-2.8
				c-3.4-1.5-7.6-3.3-9.5-4.1c-1.8-0.7-5-2.1-7.3-3c-2.1-1.1-6.3-2.8-9.2-4c-16.6-7-63-31.8-68.8-36.8c-3.4-3-5.1-4.2-10.3-7.4
				c-2.9-1.7-5.5-3.6-5.9-4s-3-2.2-5.9-4c-2.9-1.7-5.5-3.4-5.9-4c-0.4-0.4-5.1-4.2-10.5-8.6s-10.7-8.7-11.9-9.9
				c-1.1-1.1-5.9-5-10.5-8.8c-11.3-9-39-37.6-51.4-53.1c-5.4-6.9-11.7-14.5-14-17c-3.4-4.1-19.8-27.7-23.6-34.1
				c-0.7-1.3-2.6-4.1-4.1-6.2c-1.6-2.2-4.7-7.5-7.1-11.9s-6.5-11.7-9-16.5c-6.5-12-10.2-19.4-13.4-27c-1.6-3.6-3.3-7.8-4-9.2
				c-1.6-3.6-5.5-13.2-8.6-20.4c-1.3-3.3-3.2-7.8-4.1-10.2c-1.1-2.2-1.8-4.7-1.8-5.7c0-1.8-3.8-14.1-5.4-17.4
				c-0.7-1.2-1.6-4.6-2-7.6c-0.5-2.9-1.3-5.7-2-5.9c-0.5-0.4-1.5-3.6-1.8-7c-0.5-3.4-1.5-7.6-2.1-9.5c-0.7-1.8-1.7-6.9-2.4-11.2
				c-0.7-4.4-1.8-10.5-2.5-13.8c-5.5-25.8-7.4-48.5-7.4-89c0.1-30.9,1.8-61.3,4.4-73.2c0.7-3.3,2-9.5,2.8-13.8s2.4-12,3.4-17.1
				c1.1-5,2.5-12.5,3.3-16.5c0.7-4,1.8-7.8,2.4-8.6c0.7-0.7,1.6-3.6,2-6.5c0.5-2.8,1.5-6.1,2.1-7.3c0.5-1.2,2.4-6.6,4-12
				c1.6-5.4,3.4-10.9,4.1-12.1c0.7-1.3,1.2-3,1.2-3.8c0-1.3,1.8-5.9,5.9-15c1.8-4,6.5-14.8,8.4-19.8c2.1-5.3,11.2-23.7,11.9-24.4
				c0.5-0.4,2.5-4,4.5-7.9c6.9-13.4,9.5-17.8,24-39.6c12.7-19.1,16.6-24.4,22.4-30.8c1.2-1.3,5.8-7,14.5-17.9
				c3.2-4,43.2-44,48.9-48.9c2.2-1.8,5-4,6.1-4.6c1.2-0.7,4.5-3.3,7.3-5.8c12.4-11.5,49.6-37.3,65.7-45.7c4.4-2.2,11.7-6.2,16.5-8.8
				c13.1-7.3,19.8-10.4,20.6-9.6c0.4,0.4-1.3,2.6-3.7,5.1c-2.4,2.4-8.8,9.4-14.2,15.4c-5.4,6.2-10.5,11.7-11.2,12.5
				c-3.4,3.7-22.8,28.2-25.2,31.8c-1.3,2.2-2.9,4.6-3.4,5.3c-6.1,7.9-12.9,18.1-12.9,19c0,0.7-0.8,2.1-1.6,3
				c-1.6,1.6-7.1,11.9-13.2,24.1c-1.5,2.9-3.2,6.3-3.8,7.5c-0.7,1.3-1.2,3-1.2,4s-0.9,3.4-2,5.4c-1.1,2-2.2,5.9-2.8,8.6
				s-1.6,5.7-2.4,6.7c-0.9,1.2-1.5,9.2-1.3,23.1c0,17.3,0.4,22,2.2,25.2c1.2,2.2,2.2,4.6,2.2,5.5c0,3.2,9.4,17,16.1,23.9
				c10.7,10.9,28.7,22,50.5,31.2c2.9,1.2,7.3,3,9.6,4.1c2.4,1.1,5.3,1.8,6.6,1.8c1.2,0,4,0.9,6.1,2c2,1.1,4.6,2,5.7,2
				c1.1,0,3.8,0.8,6.1,1.8c2.4,1.1,7.3,2.6,10.8,3.4c3.7,0.8,10.4,2.4,15.2,3.4s12,2.5,16.2,3.2c4.4,0.8,8.4,1.7,9.2,2.2
				c1.7,1.1,18.7,3.8,34.5,5.7c5.8,0.7,12.7,1.8,15.2,2.5c5.4,1.5,27.4,4,49.2,5.4c8.6,0.7,18.3,1.7,21.8,2.4
				c3.4,0.8,16,1.7,27.9,2.2c12,0.4,25.6,1.3,30.3,2s45.6,1.6,91,2c111.4,1.1,239-1.6,288.1-6.1c24.5-2.2,66.6-3.4,67.9-1.8
				c0.5,0.8,2.1,4.6,3.3,8.6c1.3,4,2.9,8.4,3.4,9.9c1.5,3.4,3.7,12.8,5.3,21.8c0.8,4,2,9.1,2.6,11.5c0.7,2.2,1.6,7.4,2.1,11.2
				c0.4,3.8,1.3,8,2,9.5c0.8,1.3,1.8,9,2.5,17.1c0.7,8,1.7,18.9,2.5,23.9c1.6,11.7,1.5,72.6-0.1,83.1c-0.7,4.4-1.7,14.8-2.4,23.1
				c-0.7,8.3-1.8,17-2.6,19.1c-1.3,4.1-3.2,13.2-5.5,28.3c-0.8,4.7-2,9.1-2.6,9.8c-0.7,0.8-1.2,2.8-1.2,4.6c0,2-0.8,5-1.8,6.9
				c-0.9,1.8-2.1,5.7-2.6,8.4c-0.5,2.6-1.5,5.9-2,7.1c-1.6,3.2-5.4,15.4-5.4,17.1c0,0.9-1.2,4.4-2.8,7.8c-2.9,6.7-5.8,13.4-8,18.7
				c-3.6,8.7-4.9,11.7-7.5,17.8c-3.4,7.8-2.8,6.3-15.8,30.6c-3.6,6.6-15.2,26.2-16,26.8c-0.4,0.4-2.2,3-4,5.9
				c-1.7,2.9-3.4,5.5-3.8,5.9c-0.5,0.4-4.2,5.7-8.3,11.9c-4.2,6.2-9.6,13.4-12.1,16.1s-7.4,8.6-10.8,13.2
				c-7.4,9.5-46.7,49.3-56.6,57.1c-3.6,2.9-10.4,8.6-15.2,12.5c-4.7,4.1-13.1,10.3-18.5,13.8c-5.4,3.7-10.2,6.9-10.5,7.3
				c-0.4,0.5-3,2.2-5.9,4c-2.9,1.7-5.5,3.6-5.9,4c-0.5,0.8-20.2,12.4-26.8,16c-1.3,0.7-5.8,3.2-9.9,5.4c-11.7,6.3-25,12.9-26.5,12.9
				c-0.7,0-2.9,0.8-5,1.8c-2,1.1-5.1,2.5-7,3.3c-6.7,2.8-16.6,7-20.7,8.8c-2.2,1.1-5,1.8-6.2,1.8c-1.2,0-3.2,0.5-4.5,1.2
				c-2.1,1.2-10.8,4-27.9,9c-4,1.2-8.8,2.6-10.8,3.3c-2,0.8-7,1.8-11.2,2.5c-9.8,1.3-21,3.7-26.5,5.3c-2.4,0.8-10.7,2-18.5,2.6
				c-7.8,0.7-17.4,1.7-21.4,2.4C925.1,12582.8,853.1,12582.6,843,12581.2z M576.8,12389.9c1.6-2.1,2.5-5.3,2.5-9.6
				c0-3.6,0.9-8,2-9.9c1.1-1.8,2-5.7,2-8.6s0.9-6.7,2-8.6c1.1-1.8,2-5,2-7.3c0-2.1,0.9-5.1,2-6.5c1.1-1.5,2-4.7,2-7.5
				c0-2.6,0.9-6.6,2-8.6c1.1-2.1,2-5.3,2-7.1c0.1-1.8,0.9-4.7,2-6.6s2-5,2-7.3c0-2.1,0.9-5.1,2-6.5c1.1-1.5,2-3.8,2-5.3
				c0-1.6,0.9-4,2-5.3c1.1-1.5,2-4.2,2-6.2s0.9-5.3,2-7.3c1.1-2.1,2-4.9,2-6.2s0.9-3.3,2-4.4c1.1-1.2,2-3.4,2-5.1s1.1-5,2.2-7.5
				c1.2-2.4,2.9-5.9,4-7.9c0.9-1.8,1.7-4.6,1.7-6.1s0.9-3.3,2-4.2c1.1-0.9,2-2.4,2-3.3c0-1.1,0.8-3.4,1.8-5.5c1.1-2,3-6.1,4.4-9
				c1.3-2.9,3.2-5.8,4.1-6.3c0.8-0.5,1.6-2.5,1.6-4.2s0.7-3.6,1.5-4c0.7-0.5,1.8-2.2,2.6-3.7c0.7-1.6,1.7-3.8,2.4-4.9
				s2.5-4.6,4.1-7.9c1.5-3.3,3.3-6.9,4-7.9c0.7-1.1,1.5-2.9,1.8-4c0.5-1.1,2.2-4.4,4.1-7.3c1.7-2.9,3.2-6.1,3.3-6.9
				c0-0.9,1.8-4.6,4-8c2.2-3.6,4-7.4,4-8.4c0-1.2,0.9-2.8,2-3.7c1.1-0.9,2-2.8,2-4.2s0.9-3.4,2-4.5c1.1-1.2,2-3.4,2-5
				c0-1.7,0.9-3.8,2-4.7s2-3.2,2-5.1c0-1.8,0.9-4.6,2-5.9c1.1-1.5,2-4.5,2-6.6c0-2.2,0.9-5.3,2-6.6c1.1-1.5,2-5.3,2-8.6
				s0.9-8.4,2-11.3c2.6-7.5,2.6-38.1,0-43.4c-1.1-2-2-5.9-2-8.6c0-2.8-0.9-6.1-2-7.5c-1.1-1.3-2-3.6-2-4.9c0-2.2-1.2-5-5.4-12.8
				c-0.5-1.1-2.4-4.5-4-7.6c-1.6-3.2-3.7-6.1-4.6-6.5c-1.1-0.4-1.8-1.6-1.8-2.6c0-2-22-25.4-24.1-25.4c-0.7,0-3.4-1.7-6.2-4
				c-2.8-2.1-5.5-4-6.3-4c-0.7,0-2-0.9-2.9-2s-3-2-4.6-2c-1.7,0-3.3-0.9-3.8-2c-0.4-1.2-2.4-2-4.5-2c-2.1,0-4.6-0.9-5.5-2
				s-3.6-2-5.8-2c-2.2-0.1-5.5-0.9-7.4-2c-2.5-1.5-8.8-1.8-26.4-1.8c-17.5,0-23.9,0.4-26.4,1.8c-1.8,1.1-4.9,1.8-6.7,2
				c-1.8,0-4.5,0.9-5.9,2c-1.3,1.1-3.6,2-4.9,2c-1.2,0-4.5,1.2-7.1,2.6c-2.8,1.5-5.5,2.6-6.3,2.6s-2.8,1.3-4.6,3
				c-1.8,1.7-4.2,3.4-5.3,4c-1.1,0.5-3.3,1.8-5,2.8c-4.1,2.4-27.9,26.8-27.9,28.6c0,0.8-1.7,3.7-4,6.5c-2.1,2.8-4,5.8-4,6.7
				c0,1.1-0.9,3-2,4.4c-1.1,1.5-2,3.6-2,4.9c0,1.2-0.9,2.9-2,3.8c-1.1,0.9-2,3.4-2,5.5s-0.7,5.1-1.6,6.7c-2.8,5.3-5,30.8-3.7,42.5
				c0.7,5.8,1.5,13.2,1.8,16.5c1.1,10.4,3.2,19.6,5.3,22.7c1.2,1.6,2.1,4.6,2.1,6.6c0,2.1,0.5,3.7,1.2,3.7c0.7,0,1.7,2,2.1,4.4
				c0.5,2.2,1.8,5.4,2.8,6.9c1.1,1.5,1.8,3.6,1.8,4.7s0.9,2.9,2,3.8s2,3,2,4.6c0,1.7,0.9,3.3,2,3.8c1.1,0.4,2,1.8,2,3.2
				c0,1.5,0.9,3.3,2,4.2c1.1,0.9,2,2.6,2,4s0.9,3,2,4c1.1,0.9,2,2.8,2,4.2c0,1.3,0.9,2.8,2,3.2c1.1,0.5,2,2.2,2,4c0,1.8,0.9,3.6,2,4
				c1.1,0.5,2,1.8,2,3.2s0.9,3,2,4c1.1,0.9,2,2.8,2,4.1s0.5,2.6,1.2,3.2c0.8,0.4,2.9,4.1,4.9,8.3c2,4.1,4.9,9.6,6.5,12.1
				s3.3,6.2,3.8,8.3c0.4,2,1.5,3.6,2.1,3.6c0.8,0,1.3,1.1,1.3,2.4s0.9,3.6,2,5c1.1,1.3,2,3.8,2,5.3c0,1.6,0.8,3.6,1.8,4.4
				c1.1,0.9,2.4,3.4,2.8,5.5c0.5,2.1,1.5,4.1,2.1,4.5c0.7,0.5,1.2,2.5,1.2,4.5c0,2.1,0.9,4.5,2,5.4s2,2.6,2,3.8s0.9,3.8,2,5.9
				c1.1,2,2,5.4,2,7.4s0.9,4.4,2,5.3c1.1,0.9,2,3.3,2,5.1c0,2,0.9,4.7,2,6.2c1.1,1.3,2,4.4,2,6.7c0,2.2,0.8,5,1.8,5.9
				c0.9,1.1,2.1,4.6,2.6,8c0.5,3.3,1.5,6.5,2.2,6.9c0.7,0.5,1.2,3,1.2,5.8c0,2.6,0.9,6.1,2,7.5c1.1,1.3,2,4.4,2,6.5
				c0,2.2,0.9,5.7,2,7.8c1.1,2,2,5.5,2,7.9c0,2.2,0.8,5.5,1.7,7.5c1.1,1.8,2.2,6.5,2.6,10.4c0.5,3.8,1.5,7.6,2.2,8.4
				c0.7,0.7,1.3,4.1,1.3,7.4c0,3.4,0.4,6.6,0.9,7C570.1,12393.7,574.3,12392.7,576.8,12389.9z M773.1,12259.8
				c0-16.6,0.4-31.1,0.8-32.3c1.2-3.2,40.7-3.2,41.9,0c0.4,1.2,0.8,15.7,0.8,32.3v30.2h19.8h19.8l-0.3-84.6l-0.4-84.8h-19.1h-19.1
				l-0.7,31.6c-0.4,17.4-0.9,31.8-1.1,32c-0.1,0.1-9.5,0.3-20.7,0.3s-20.6-0.1-20.7-0.3c-0.1-0.3-0.7-14.6-1.1-32l-0.7-31.6h-19.1
				h-19.1l-0.4,83.1c-0.1,45.7,0,83.8,0.4,84.8c0.4,1.2,5.7,1.6,19.8,1.6h19.1V12259.8z M987.7,12287.4c7.5-2.6,13.7-7.6,17.1-14
				c2-3.6,2.2-11.5,2.2-78.4v-74.5l-19-0.4c-14.4-0.3-19.2,0.1-20.2,1.3c-0.5,0.9-1.1,16.1-1.1,33.6c0,21.1-0.5,32.2-1.5,32.7
				c-2.1,1.3-44.8,1.1-46.1-0.3c-0.7-0.7-1.3-16-1.5-34l-0.4-33l-19-0.4c-14.4-0.3-19.2,0.1-20.2,1.3c-1.6,2.6-1.3,134.5,0.4,144.4
				c1.2,6.5,2.5,9.4,6.2,13.7c8.4,9.4,12.1,10,57,10.2C976.4,12289.8,981.5,12289.6,987.7,12287.4z M1152.5,12267.9l0.3-21.2
				l-5.3-0.9c-2.9-0.5-9-0.8-13.6-0.7c-4.5,0.1-19.9,0.3-34.1,0.1c-29.9-0.1-30.1-0.3-30.1-10.8c0-5.8,0.4-6.7,3.4-7.8
				c1.8-0.8,14.4-1.3,27.9-1.3c28.6,0,36.5-1.5,43.2-8c2.5-2.4,4.5-5.3,4.5-6.3c0-1.2,0.9-3.8,2-5.9c1.6-2.9,2-9.5,2-31.9
				c0-15.4-0.5-28.3-1.2-28.7c-0.7-0.4-1.6-2.8-2-5.1c-1.2-6.5-9.1-15.2-14.8-16.2c-2.5-0.4-4.9-1.3-5.3-2s-22.7-1.2-50-1.2
				c-43.6,0-49.3,0.3-50,2.1c-1.6,4.1-0.9,39.8,0.8,40.9c0.9,0.5,18.3,1.1,38.8,1.1c34.7,0.1,37.3,0.3,39.9,2.6
				c2,1.8,2.8,4.1,2.8,8.2c0,9.2-1.7,9.8-29.8,9.8c-27.9,0-36.3,1.2-42.6,6.3c-9.8,7.9-10,9-10,45.1c0,27.6,0.3,33,2.2,36.9
				c3,6.5,10,13.2,14.5,14.1c2.1,0.4,4.1,1.3,4.5,1.8c0.4,0.7,22.9,1.1,51,0.9l50.4-0.4L1152.5,12267.9z M1295.7,12287.8
				c0.4-1.2,0.8-10.5,0.8-21c0-13.8-0.4-19.1-1.7-20.2c-1.2-0.9-14.2-1.5-39-1.5c-42.2,0-42.3,0-42.3-9.5c0-3.8,0.8-5.5,3.4-7.6
				c3.3-2.6,5.3-2.8,27.7-2.8c28.1,0,36.3-1.3,42.5-7.1c8.7-8,8.8-8.6,8.8-44.3c0-27.9-0.3-33-2.2-37c-2.8-5.7-12-14.4-15.3-14.4
				c-1.3,0-3-0.7-3.7-1.3c-0.9-0.9-18.9-1.2-51.4-1.1l-50,0.4l-0.4,21.2l-0.3,21.4l4.5,0.8c2.5,0.5,20.3,0.8,39.8,0.7
				c40.2-0.3,38.8-0.7,38.8,10.9c0,5.7-0.4,6.6-3.4,7.6c-1.8,0.8-13.8,1.3-26.8,1.3s-26.8,0.7-30.7,1.5c-9.6,2-15.8,7.4-19.5,17.3
				c-2.5,6.9-2.8,9.5-2.2,34.3c0.5,30.6,1.8,37,8.4,43.5c8.7,8.4,10.3,8.7,64.5,8.8C1289.5,12290,1295.1,12289.7,1295.7,12287.8z
				 M781.3,12084.3c7.4-3,8.2-4.5,8.7-17.8c0.3-6.9,0.1-15.2-0.3-18.5c-1.3-8.3-5.4-10.3-22.5-11.2l-13.2-0.7l-0.4-13.4l-0.4-13.6
				h-9.8h-9.9v37.4v37.6l3,0.5C742.5,12085.9,778.3,12085.6,781.3,12084.3z M845.5,12083.8c1.6-1.1,2-13.6,0.7-17.1
				c-0.7-1.7-3.2-2.1-14.4-2.1c-14.1,0-16-0.7-14.5-5.3c0.7-2.1,2.2-2.6,10.3-2.9l9.5-0.4v-9.2v-9.2l-9.5-0.4
				c-9.6-0.4-11.9-1.7-10.2-6.2c0.7-1.6,3.6-2,14.4-2c12.9,0,13.6-0.1,14.4-2.9c1.3-5.1,0.9-15.3-0.8-16.3c-1.8-1.2-44.2-0.9-46,0.1
				c-0.7,0.5-1.2,16.2-1.2,37c0,35.1,0.1,36.3,2.6,37.2C804.1,12085.2,843.5,12084.9,845.5,12083.8z M900.2,12084.3
				c3.2-1.2,3.4-1.8,3.4-9.1c0-9.1-1.1-10.3-9.2-10.9l-5.9-0.4l-0.3-25.7c-0.1-14.1-0.3-26.5-0.3-27.4c-0.1-1.3-2.6-1.6-9.6-1.3
				l-9.6,0.4l-0.3,26.2c0,14.4-0.7,26.6-1.3,27.2c-0.5,0.7-3.4,1.3-6.3,1.6l-5.3,0.4l-0.4,8.3c-0.3,5,0.3,9.1,1.2,10.3
				c1.2,1.5,5.8,1.8,21.1,1.8C888.1,12085.6,898.4,12085.1,900.2,12084.3z M963.7,12081.3c2.8-3.3,3.2-4.9,3.2-15.6
				c0-9-0.5-12.7-2.2-15.3c-2.1-3.2-2.1-3.6,0-7.3c1.7-3,2.2-7.3,2.2-19v-15.2l-9.5,0.4l-9.6,0.4l-0.7,13.2l-0.7,13.2l-6.5,0.4
				c-3.6,0.3-7-0.1-7.8-0.9c-0.7-0.7-1.2-6.6-1.1-13.1c0.3-7.9-0.3-12.3-1.3-12.8c-1.5-1.1-17-1.1-17.9-0.1s-0.5,73.3,0.4,74.8
				c0.5,0.9,8.7,1.2,24.5,0.9l23.7-0.4L963.7,12081.3z M1028.3,12081.3c3.8-4.5,5-16.6,4.2-43.8c-0.4-18.1-0.8-20.8-3.3-24l-2.6-3.7
				l-21-0.4c-13.7-0.3-21.9,0.1-23.7,1.2c-6.1,3.2-7.1,8.6-7.1,36.3c0,38.2,0.7,39,32.2,38.2
				C1024.9,12084.7,1025.4,12084.5,1028.3,12081.3z M1058.9,12084.4c0.1-0.1,0.3-12.3,0.3-27.2c0-31.2-1.8-28.1,16.5-28.6l10.5-0.4
				v-9.2v-9.2l-20.4-0.7c-11.2-0.4-21.5-0.1-22.7,0.4c-2.2,0.9-2.4,4-2.4,36.9c0,26.2,0.4,36.4,1.6,37.6
				S1055.5,12085.5,1058.9,12084.4z M1143.3,12083.6c1.3-1.2,1.3-14.2,0-16.7c-0.9-1.8-3.4-2.4-14.6-2.6
				c-13.3-0.4-13.4-0.4-13.4-3.7c0-3.2,0.4-3.3,8.6-3.7c6.1-0.3,9.1-0.9,10.3-2.5c1.8-2.6,2.1-9.5,0.3-14.1
				c-1.2-3.3-1.7-3.4-10.5-3.4h-9.4l0.4-3.6l0.4-3.7l13.7-0.7c13.7-0.7,13.8-0.7,14.8-4.2c0.5-2.1,0.9-6.2,0.8-9.2l-0.3-5.7
				l-21.8-0.7c-12-0.4-22.8-0.4-24-0.1c-2.2,0.4-2.4,3.3-2.4,37.7c0,28.7,0.4,37.4,1.7,38
				C1100.2,12085.5,1142.4,12084.7,1143.3,12083.6z M1168.8,12084.3c2.4-1.3,2.5-3,2.5-26.9c0-29,0-28.9,10.2-28.2l6.3,0.4l0.4,27.2
				c0.4,30.7-0.4,28.9,11.1,28.9c9.5,0,9,2.1,9-35.1c0-32.4-0.1-33.8-2.9-37.4l-2.9-4h-21.9c-30.1,0-27.6-3.6-27.7,39.8
				c-0.1,18.6,0.1,34.5,0.7,35.2C1154.5,12086,1165.3,12086,1168.8,12084.3z M1232.4,12084.3c2-0.7,3.4-2.2,3.4-3.6s0.9-4.1,2-6.1
				c1.1-2,2.2-5.7,2.8-8.3c0.4-2.5,1.3-4.9,2-5.3s1.2-1.7,1.2-2.9s0.8-3.8,1.8-5.8s2.2-5.5,2.8-7.9c1.8-8.7,5.4-10,6.7-2.6
				c0.5,2.6,1.7,6.1,2.6,7.5c1.1,1.5,1.8,3.7,1.8,4.9c0,1.3,0.7,3.4,1.3,4.7c0.8,1.2,2.8,6.6,4.5,11.9c4,12.4,5.9,14.8,12.5,14.8
				c10,0,9.4,2.6,9.4-38.9v-37.2l-4.9-0.7c-2.8-0.4-7-0.4-9.2-0.1c-4.2,0.7-4.4,0.9-4.4,7.1c0,4.6-0.5,6.5-1.8,6.5
				c-2.1,0-3.4-2.8-3.4-7.3c0-1.6-0.8-3.6-1.6-4.4c-1.5-1.2-11.9-2.2-16.5-1.7c-1.8,0.1-5.7,7.5-5.7,10.8c0,3.6-1.5,6.6-2.8,5.7
				c-0.7-0.4-1.2-4.1-1.2-8.4v-7.6l-6.2-0.5c-3.6-0.1-7.9-0.3-9.9,0l-3.7,0.4v37.4v37.4l3,0.5
				C1224.5,12085.7,1229.1,12085.6,1232.4,12084.3z"/>
			<path class="st3" d="M919.3,12245.5c-0.8-0.8-1.2-4.4-0.9-7.9l0.4-6.3h23.7h23.7v7.8v7.9h-22.8
				C927.4,12247.1,920.1,12246.7,919.3,12245.5z"/>
			<path class="st3" d="M753.9,12062.5c-1.8-4.6,0.4-6.1,8.3-5.7c6.2,0.3,7.6,0.8,8,2.9c0.7,3.4-2,4.7-9.4,4.7
				C756.5,12064.5,754.4,12063.8,753.9,12062.5z"/>
			<path class="st3" d="M931.6,12062.9c-4.2-4.2,0.1-6.9,9.8-6.1c4.5,0.4,5.1,0.8,5.1,3.7c0,3-0.5,3.3-6.6,3.7
				C935.9,12064.5,932.6,12064,931.6,12062.9z"/>
			<path class="st3" d="M995.4,12062.4c-1.5-4-0.9-30.2,0.8-31.9c1.7-1.7,9-2.1,14-0.8c2.8,0.8,2.9,1.3,2.9,17
				c0,18.3,0.3,17.8-10.5,17.8C998,12064.5,995.9,12064,995.4,12062.4z"/>
			<path class="st3" d="M1215.4,11893.1c-6.5-0.5-27-1.6-45.5-2.4s-39.6-2.1-46.8-2.9c-15-1.6-39.4-3.6-64.6-5.3
				c-9.4-0.7-19.2-1.8-21.8-2.6c-2.5-0.7-7.9-1.3-11.9-1.5c-4,0-10.2-0.5-13.8-1.3c-3.6-0.7-12.4-1.7-19.5-2.5
				c-7.1-0.7-14.9-1.8-17.1-2.5c-4.2-1.3-15.2-3.2-31.9-5.4c-9-1.2-15.3-2.5-27-5.4c-3.3-0.8-9.4-2-13.6-2.6s-8.8-1.7-10.2-2.5
				c-1.3-0.7-3.8-1.3-5.5-1.3c-1.7,0-4.7-0.9-6.9-2c-2-1.1-4.6-2-5.7-2c-1.6,0-4.5-1.2-16.9-6.6c-1.5-0.7-4-1.6-5.5-2
				c-1.7-0.5-3-1.5-3-2.1s-0.7-1.2-1.5-1.2c-1.8,0-11.3-7.4-15.3-11.9c-1.6-1.8-3-4.4-3-5.5s-0.5-2.6-1.3-3
				c-1.6-1.1-1.7-11.7-0.1-14.9c0.5-1.2,2.2-4.6,3.6-7.5c3.6-7.6,19-23.3,34.1-34.4c7.3-5.4,14.4-10.7,15.8-11.7c1.3-1.1,3-2,3.7-2
				c0.5,0,3-1.5,5.3-3.2c2.4-1.7,5.5-3.6,7.3-4.1c1.6-0.4,2.9-1.3,2.9-2c0-0.5,1.6-1.7,3.7-2.5c2-0.8,8.3-4.1,14.1-7.4
				c14-7.8,43.9-22.4,65.9-32.3c10-4.5,11.2-5,21.1-9.2c3.7-1.6,7.8-3.3,9.2-4c3.8-1.7,13.6-5.8,20.4-8.4c3.3-1.3,7.1-2.9,8.6-3.6
				c3.7-1.5,16.2-6.3,22.4-8.7c2.9-1.1,6.3-2.5,7.5-3.2c1.3-0.7,3-1.2,4-1.2c0.9-0.1,4.1-1.2,7-2.6c2.9-1.5,6.3-2.5,7.5-2.6
				c1.2,0,2.6-0.5,3-1.3c0.4-0.7,1.8-1.3,3-1.3s4-0.9,5.9-2c2.1-1.1,6.1-2.5,9-3.3c4.6-1.3,6.2-1.1,12.8,2.1c4.1,2,7.8,3.8,8.2,4.4
				c0.4,0.4,3.7,2.2,7.3,4c5.5,2.8,38.6,24.3,43.8,28.5c0.9,0.8,2.4,2,3.3,2.6c7.3,5.8,15.2,12.1,16.3,13.2c3.4,3,9.6,8.3,15.4,12.9
				c13.4,10.9,46,45.5,60.2,64.2c2.5,3.3,5.3,6.6,6.2,7.3c2.2,1.8,28.5,41.3,33.5,50.5c2.4,4.1,6.1,10.9,8.3,15.4
				c2.2,4.4,4.5,8.2,4.9,8.6c0.7,0.7,4.9,9.4,8.8,18.5c1.1,2.5,2.8,6.2,3.8,8.2c0.9,1.8,1.7,4.7,1.7,6.2v2.8l-59.6-0.3
				C1254.2,11894,1222,11893.5,1215.4,11893.1z"/>
			<path class="st3" d="M224.9,11355.7c-7.4-3.6-11.7-8.8-14.9-17.9c-1.5-4.1-1.5-5.9,0-9.9c2.6-7.3,4.4-9.2,36.1-42.3
				c10.4-10.7,10.5-10.9,9.9-16.6c-0.4-3.6-1.8-6.9-3.8-8.8c-3-3-3.8-3.2-29.1-3.6c-25.6-0.4-26-0.5-27.9-3.6
				c-1.8-2.9-1.8-3.3,0-5.3c1.8-1.8,5.5-2.1,27.4-1.7c24.9,0.4,25.2,0.4,30.9,4.1c3,2,7.4,6.1,9.5,9.1c3.3,4.5,4,6.7,4,12.7
				c0,6.3-0.5,7.9-4.9,13.3c-2.8,3.3-5.3,6.3-5.7,6.7s-8.8,9.1-18.9,19.4c-16.2,16.9-18.1,19.2-18.1,23.5c0,3.4,1.1,5.7,4.6,9.2
				l4.7,4.6h24.9c20.8,0,25.2,0.4,26.9,2.1c2.4,2.2,2.5,3.2,1.3,6.3c-0.7,1.8-4.2,2.1-25.4,2.1
				C232.8,11359,231.7,11358.9,224.9,11355.7z"/>
			<path class="st3" d="M784.4,11357.2c-1.7-1.3-2.9-4.4-3.6-9c-1.1-8.4-3.4-21.8-5.4-30.5c-0.8-3.4-1.8-9.8-2.4-13.8
				c-2.8-19.4-4.2-27.4-5.4-31.1c-0.8-2.1-1.7-8.8-2.1-14.8c-0.7-9.5-0.5-10.9,1.5-11.7c1.3-0.5,2.9-0.3,3.7,0.5
				c2.2,2.2,4.9,10.7,5.7,18.1c0.5,3.7,1.3,9,2.1,11.9c0.7,2.9,1.8,9.1,2.5,13.8c1.8,12.4,5,30.2,6.6,36.3c0.7,2.9,1.3,7.8,1.3,10.8
				s0.5,5.8,1.1,6.2c1.6,0.9,6.9-6.5,6.9-9.4c0-1.3,0.9-4.1,2-6.2c1.1-2,2-4.6,2-5.7s0.8-3.8,1.8-6.1c0.9-2.4,4-11.3,6.6-20
				c2.8-8.7,5.5-16.9,6.2-18.1c0.7-1.3,1.2-3.4,1.2-4.6c0-1.3,0.9-4.1,2-6.2c1.1-2,2-4.6,2-5.7c0-1.8,2.5-8.4,5.1-13.6
				c0.7-1.3,3.4-2.1,7.6-2.4c7.6-0.4,10.9,1.7,10.9,7.4c0,2,0.9,6.5,2,10c1.1,3.6,2,8.8,2,11.6c0,2.9,0.5,6.3,1.3,7.6
				c0.7,1.3,1.8,6.9,2.6,12.1c2.2,17.1,4.1,27.9,5.4,32.4c0.8,2.4,1.7,7.6,2.1,11.9c0.3,4.1,1.2,9.2,2,11.2c1.2,3.2,1.1,4.2-1.3,6.6
				c-2.6,2.6-2.9,2.6-5.4,0.4c-1.3-1.2-2.8-4.2-3.2-6.5c-0.5-2.4-1.5-8-2.2-12.8s-2.1-11.5-2.9-15.2c-0.8-3.6-2-10.2-2.5-14.5
				c-1.1-7.6-2.8-17.5-5.1-29.7c-0.7-3.3-1.6-8.7-2-12.1c-0.4-3.6-1.3-6.3-2-6.3c-1.5,0-6.6,10.2-6.6,12.9c0,1.1-0.8,3.7-1.8,5.9
				c-1.1,2.4-3.2,8.4-4.7,13.4c-1.6,5.1-3.3,10.2-4,11.3s-1.6,4.4-2,7c-0.5,2.6-1.5,5.1-2.1,5.5s-1.2,2-1.2,3.6s-0.9,4.6-2,6.7
				c-1.1,2-2,4.7-2,5.9s-0.9,3.8-2,5.9c-1.1,2-2,4.6-2,5.7s-1.3,4.9-2.8,8.4c-2.8,6.5-2.9,6.5-9,6.5
				C789.7,11359.2,785.8,11358.3,784.4,11357.2z"/>
			<path class="st3" d="M1091.9,11356.9c-2.4-3-4.6-10.5-6.3-21.5c-2.2-15-4-25.4-5.9-34.4c-1.1-4.9-2-10.7-2-12.8
				c0-2.2-0.5-5.4-1.3-7.1c-0.7-1.7-2-7.5-2.6-12.9c-0.8-5.4-1.8-12.1-2.2-15c-0.7-4.7,0.7-7.3,4-7.4c2.6,0,6.2,5.7,6.2,10
				c0,2.5,0.5,5.8,1.3,7.1c0.7,1.3,1.8,6.9,2.5,12.1c2,14.9,4.4,25.3,5.9,26.4c0.8,0.5,12.5,1.1,26,1.1c26.5,0,28.2,0.4,27.3,6.9
				c-0.4,3-0.4,3-25.4,3.4c-14.9,0.1-25.3,0.8-25.7,1.7c-0.9,1.3-0.1,6.6,3,24.3l1.7,9.2l29.9,0.7c30.7,0.7,32.4,1.1,32.6,5.9
				c0,4.2-3.4,4.6-34.9,4.6C1097,11359.2,1093.7,11358.9,1091.9,11356.9z"/>
			<path class="st3" d="M1356.4,11355.5c-1.8-1.2-5.8-16.6-5.8-22.3c0-2.1-0.7-5.7-1.3-7.8c-0.8-2.1-1.8-7.6-2.6-12.4
				c-2-14.2-4-25.3-5.5-32.2c-2.6-11.9-0.8-22.3,4.9-27.9c4.1-4.2,12.1-7.1,19.2-7.1c6.5,0,7.8,0.4,9.5,3.2c2,2.9,2,3.3-0.1,5.1
				c-1.2,1.1-5.7,2.2-9.9,2.5c-11.2,0.9-14.1,4.1-14.1,15.7c0,5,0.9,12.4,2,16.6c1.1,4.1,2,9.6,2,12.3c0,7,1.7,7.9,14,7.9
				c11.3,0,14.4,1.5,13.4,6.2c-0.5,2.9-4.7,4.1-15.4,4.2l-8.3,0.1l0.7,5.7c0.4,3,1.3,8.7,2.2,12.5
				C1363.9,11350.7,1361.6,11359,1356.4,11355.5z"/>
			<path class="st3" d="M478.6,11333.3c-4.1-4.1-2-9.4,3-7.8c3,0.9,4.2,4.7,2.5,7.8C482.7,11336,481.2,11336,478.6,11333.3z"/>
			<path class="st3" d="M562.2,11333.1c-3.3-2.6-3-6.3,0.8-7.8c3.2-1.2,8.2,4.4,6.3,7.1C567.3,11335.7,565.6,11335.8,562.2,11333.1z
				"/>
			<path class="st3" d="M1403.6,11333.9c-2.2-2.2-2-7.5,0.4-8.4c3-1.2,6.1,2.1,5.7,5.9S1406.1,11336.4,1403.6,11333.9z"/>
			<path class="st3" d="M379.6,11318c-2.9-0.7-7.9-0.9-11.2-0.7c-7.1,0.8-10.5-0.8-10.5-4.7c0-1.6-0.9-5.8-2-9.4
				c-1.1-3.6-2-8.6-2-11.2s-0.9-7.6-2-11.2c-1.1-3.6-2-8.4-2-10.9c0-2.4-0.9-7.9-2.2-12.3c-1.7-6.3-1.8-8.2-0.4-9.9
				c4.1-4.9,9.4,0.4,10.8,10.9c1.2,9.6,4.2,26.6,6.3,35.5c1.2,5.4,2.6,7.9,6.3,10.9c4.1,3.4,5.9,4,12.5,4c8.8,0,12.8,1.6,12.8,5.3
				C396.1,11319.1,390.1,11320.4,379.6,11318z"/>
			<path class="st3" d="M519.2,11317.5c-14.1-3.2-24.5-14-27-28.2c-0.5-3.3-1.7-8.8-2.5-12.5c-4-18.2,7.1-31,26.6-31
				c13.3,0,17.3,2.2,14.2,7.9c-1.1,2-3.3,2.5-12.5,2.8c-10,0.5-11.5,0.9-14.8,4.1c-3.3,3.4-3.6,4.4-3.4,13.4
				c0.4,15.8,4.9,26.2,13.8,31.9c4.1,2.6,6.7,3.2,14.9,3.2c8.3,0,10.3,0.4,12.7,2.8c2.5,2.5,2.6,3,0.7,4.9
				C539.4,11319.2,528.7,11319.6,519.2,11317.5z"/>
			<path class="st3" d="M600.1,11317.6c-4.9-1.3-7.3-1.5-10.3-0.3c-5.9,2.2-8.8-1.3-10.4-12.9c-2.6-19.5-4.2-29.1-5.5-33
				c-2.1-6.6-3-23.9-1.3-24.9c4.9-3,8.2,3.6,10.7,21.5c3.7,26.2,5.9,32.7,12.7,37.8c3.4,2.6,5.5,3.2,13.4,3.2
				c9.1,0,9.4-0.1,13.4-4.9c2.8-3.4,3.8-5.8,3.3-7.6c-0.4-1.5-1.5-6.7-2.1-11.9c-0.8-5-1.8-11.1-2.6-13.3c-2.1-7-3-23.7-1.3-24.8
				c4.9-3,8.3,3.7,10.8,21c0.5,4.4,2,13.3,3,20c2.2,14.5,1.2,20.7-4.2,25.6c-3.8,3.4-14.4,6.6-20.4,6.3
				C607.7,11319.4,603.6,11318.6,600.1,11317.6z"/>
			<path class="st3" d="M1176.1,11317.5c-3.4-1.2-5.8-1.5-8.3-0.5c-4.6,1.8-5.4,1.7-8.4-1.3c-1.7-1.7-2.6-4.4-2.6-7.9
				c0-2.8-0.5-6.5-1.3-8.2c-0.7-1.7-1.8-7.1-2.5-12.3c-1.3-10.7-3.7-23.9-5.5-32.3c-1.2-5-1.1-6.1,0.9-7.5c1.3-0.9,2.8-1.7,3.3-1.7
				c2.2,0,5.1,4.5,5.1,7.9c0,2.1,0.5,5.1,1.3,6.9c0.7,1.7,1.8,7.3,2.5,12.3c4.1,30.5,7.9,36.3,23.7,36.3c8.8,0,12.8,2.1,11.5,6.3
				c-0.7,1.8-2.1,2.9-4,2.9c-1.7,0-4.7,0.3-6.9,0.5C1182.9,11319.2,1178.9,11318.6,1176.1,11317.5z"/>
			<path class="st3" d="M1224.5,11317.6c-16.2-3.8-25.7-15.7-28.2-36c-0.7-5.3-1.6-10.2-2-10.8c-1.1-1.7,3.4-14.8,5.8-17.3
				c4-4.1,12.5-7.8,18.3-7.8c7.1,0,18.1,4.9,23.7,10.7c2.2,2.4,4.2,4.7,4.2,5.3s0.9,2,2.1,3c1.1,1.2,2.5,4.9,3.2,8.3
				c0.7,3.6,1.7,8.7,2.5,11.6c4,14.9-1.7,28.6-13.2,32C1233.2,11319.1,1231.4,11319.1,1224.5,11317.6z M1239.8,11305.1l4.6-3.8
				l-0.3-12.3c-0.3-14.5-2.5-21-9.5-27.2c-8.3-7.5-20.6-7.5-26.9,0c-3.2,3.8-3.6,5.3-3,10.9c1.1,12.1,3.8,22.4,7.1,26.8
				C1219.4,11309.3,1231.8,11311.8,1239.8,11305.1z"/>
			<path class="st3" d="M1291.5,11317.6c-4.1-1.3-6.6-1.5-9.4-0.5c-7.1,2.5-10.7-2-10.7-13.4c0-2-0.5-5-1.3-6.7
				c-0.7-1.7-1.8-7.1-2.5-12.3c-0.7-5-1.8-11.6-2.5-14.5s-1.7-9.2-2.1-14.1c-0.8-8-0.7-8.8,1.8-9.6c3.6-1.1,6.6,1.5,6.6,5.4
				c0,1.7,0.5,4.4,1.3,6.1c0.7,1.7,1.8,7.3,2.6,12.3c2.2,16.3,4.9,28,7,31c3.8,5.4,9.6,7.9,18.5,7.9c8.6,0,12.4-1.8,15.2-7.4
				c1.6-2.9,0.7-11.9-3-30.2c-3.3-16.5-3.6-22.5-1.2-24.5c4.7-3.8,7.8,2.6,10.9,23.2c0.8,5.1,2,11.9,2.6,15.2
				c0.8,3.3,1.3,9.5,1.5,13.8c0,7.1-0.4,8.3-4.4,12.7C1315.9,11319.1,1303.5,11321.3,1291.5,11317.6z"/>
			<path class="st3" d="M1509.6,11317.4c-4.5-1.1-7.3-1.2-9-0.3c-5.9,3.2-9.5-1.3-10.9-14.1c-0.5-4.2-1.5-9.6-2.1-12
				c-0.8-2.2-1.8-8.2-2.5-13.2c-0.7-4.9-2-13.2-2.8-18.3c-1.8-10.5-1.2-13.7,2.6-13.7c3.6,0,6.6,6.7,8,17.9
				c4.7,38.4,8.7,45.4,25.4,45.4c7.5,0,9,0.4,10.2,2.8c1.2,2.1,1.1,3.2-0.5,5C1525.5,11319.6,1518.9,11319.9,1509.6,11317.4z"/>
			<path class="st3" d="M1549.9,11317.8c-2.5-0.8-6.5-3.8-9-6.6c-3.6-4.1-4.5-6.1-4.5-10.5c0.1-5,1.1-6.5,14.5-20.8
				c8-8.6,14.5-16.3,14.5-17.4c0-4.9-3.7-6.1-19.5-6.1c-13.2,0-16-0.4-18.7-2.6c-2.6-2.1-3-2.9-1.8-4.9c1.3-2,3.8-2.4,17.5-2.8
				c19.6-0.4,25.3,1.6,30.5,10.8c4.9,9.1,3.6,12.4-12.5,28.5c-13.8,13.8-15.6,17-12.1,21.4c1.3,1.8,4.6,2.2,17.1,2.6
				c12,0.3,15.8,0.8,16.7,2.4c1.7,2.8,1.6,3.4-0.8,5.8C1579.3,11320.2,1556.8,11320.3,1549.9,11317.8z"/>
			<path class="st3" d="M306.8,11317c-11.1-2.5-24.1-17.7-24.1-27.8c0-2.2-0.5-5.1-1.3-6.5c-2.8-5.1-3-16.5-0.5-21.9
				c5.1-11.1,12.5-15,28.5-15c9.2,0,11.6,0.4,13.3,2.4c5.1,5.7,2.4,7.3-13.3,8.2c-10.7,0.7-12.5,1.2-15.4,4
				c-4.1,4.2-5.7,13.2-2.9,16.1c1.6,1.6,5,1.8,18.1,1.3c9-0.3,18.7-0.1,21.8,0.4c5.4,0.8,5.8,1.1,7.8,7.3c2.4,7.3,2.8,15.3,0.8,16.5
				c-0.7,0.4-1.3,1.8-1.3,3.2c0,3.3-7.9,10.5-13.3,12C319.6,11318.4,313,11318.4,306.8,11317z M325.3,11304.2
				c3.8-3.8,4.9-5.8,4.9-9.8c0-3.2-0.7-5.1-2.1-5.7c-3.2-1.2-31.2-0.9-33.4,0.4c-2.6,1.7-0.7,8.4,3.6,12.3c6.5,5.8,10,7.5,16.2,7.5
				C319.7,11309.1,321.2,11308.4,325.3,11304.2z"/>
			<path class="st3" d="M404.8,11316.6c-2.6-2-2.6-3.4,1.2-23.3c1.1-6.2,2.6-14.9,3.3-19.5c0.7-4.5,1.8-10.4,2.6-13.2
				c0.7-2.6,1.5-6.6,1.6-8.7c0.5-4.9,3.4-6.7,9.4-5.5c3.3,0.7,5,1.7,5.7,3.8c0.5,1.6,1.3,3.2,1.8,3.6c0.4,0.4,2.6,4.2,4.9,8.6
				c2.1,4.4,6.2,12.1,9,17.1c2.8,5.1,6.9,12.8,9.1,17.1s4.5,8,5,8.3c2,0.9,4,11.1,2.5,12.5c-2.8,2.8-7.4-1.3-12-10.4
				c-2.5-5-5-9.4-5.4-9.8s-2.5-4.2-4.7-8.6c-9.2-18.3-13.7-25.7-15.6-25.7c-1.5,0-3.3,8.3-5.9,26.9c-0.8,5-2,10.2-2.6,11.5
				c-0.8,1.3-1.3,4.5-1.3,7.1C413.2,11317,409.8,11320.3,404.8,11316.6z"/>
			<path class="st3" d="M475.3,11317.1c-1.1-0.7-2.4-4.1-2.9-7.6c-0.5-3.4-1.7-10.8-2.5-16.2c-0.8-5.4-2-11.7-2.8-14
				c-0.7-2.2-1.8-8.2-2.5-13.2c-0.8-5-1.7-11.1-2.1-13.6c-0.8-4.1,0.7-6.6,3.8-6.7c2.6,0,6.2,5.7,6.2,9.9c0,2.5,0.5,5.8,1.3,7.5
				c0.7,1.7,1.8,7.3,2.5,12.3c1.3,10,3.4,22.3,5.7,33.4c1.3,5.8,1.2,7.3-0.4,8.3C479.2,11318.6,477.7,11318.6,475.3,11317.1z"/>
			<path class="st3" d="M559.1,11316.5c-1.5-1.2-2.6-4.4-3-8.8c-0.4-4-1.3-9-2-11.3c-0.8-2.2-1.8-8.2-2.5-13.2
				c-0.7-4.9-2-14.6-3.2-21.5c-1.7-10.3-1.7-12.8-0.4-14.2c4.6-4.5,8.6,3.6,11.3,22.8c1.8,12.3,4.9,30.2,6.6,37.8
				c0.8,3.6,1.1,7.3,0.7,8.3C565.7,11318.7,562.3,11318.8,559.1,11316.5z"/>
			<path class="st3" d="M673.2,11317c-5.1-1.2-12.3-6.6-17.8-13.4c-4.9-6.1-8.8-21.1-8.8-33.9v-9.9l6.5-6.2
				c4.4-4.1,8.2-6.6,11.2-7.3c5.5-0.9,16.2,0.4,17.3,2.2c0.9,1.3,6.3,1.6,7.6,0.4c0.9-0.9-2.1-6.2-6.2-10.8
				c-5.4-6.2-11.6-8.2-25-8.2c-11.2,0-12.7-0.3-14-2.6c-0.8-1.5-1.1-3.3-0.7-4c0.5-0.8,7.6-1.3,16.2-1.3c17.8,0,22.1,1.6,31.2,11.1
				c5.8,5.9,9.4,15.7,11.3,30.3c2.1,15.7,4,26.5,5.5,31.8c0.9,2.9,1.6,9.1,1.6,13.8c0,6.9-0.4,8.6-2.1,9c-1.2,0.3-3.2-0.5-4.4-1.7
				c-1.8-1.8-2.6-2-9,0C686.5,11318.4,680.2,11318.7,673.2,11317z M688.9,11306.6c2.2-1.5,5.1-4.9,6.5-7.8c2.1-4.6,2.1-5.9,0.5-12.3
				c-1.1-3.8-1.8-8.7-1.8-10.8c0-4.2-5.1-12.1-10.3-16.1c-4.2-3-15.6-4.1-20-1.7c-1.8,0.9-4.4,4-5.8,6.7c-2.2,4.6-2.2,6.1-0.8,15.8
				c1.7,11.1,4.4,18.2,8,21.9C671.9,11309.1,681.9,11310.8,688.9,11306.6z"/>
			<path class="st3" d="M891,11317c-2.2-0.5-6.9-2.9-10.3-5.3c-10.5-7.6-15.2-18.2-16.2-37.2c-0.7-12.1-0.5-13.2,2.5-17.8
				c5.1-7.8,12.9-10.9,26.4-10.9c12.5,0,15.2,1.5,13.7,7.3c-0.8,3.2-1.2,3.3-12.5,3.3c-9.8,0-12.1,0.4-15.2,2.8
				c-4.9,3.8-7.9,11.5-6.2,15.3c1.6,3.6,0.5,3.4,25.3,3.2c18.7-0.1,19.2-0.1,22.1,3c2.8,2.9,3,4.2,2.6,14.5
				c-0.5,10.5-0.8,11.5-4.9,15.7C911.9,11317.5,902,11319.8,891,11317z M906.7,11306.4c6.2-3.7,10-16,5.4-17.7
				c-3.3-1.2-32.6-0.9-34.7,0.4c-1.6,1.1-1.6,2,0.4,6.1C883.6,11307.4,896.5,11312.4,906.7,11306.4z"/>
			<path class="st3" d="M938.7,11316.3c-2.1-1.6-2.4-2.9-1.6-8.8c0.7-5.8,3-44,3.3-54.7c0.1-4,3.6-7,8-7c3,0,4.6,1.2,7.3,4.9
				c1.8,2.8,3.3,5.5,3.3,6.3c0,0.7,1.5,4.2,3.2,7.9c1.8,3.6,4.9,10.2,6.7,14.4c4.7,10.7,6.2,8.4,7-10.7c0.7-18.2,2.2-22.8,8.2-22.8
				c4.2,0,8.6,3.8,9.8,8.6c0.4,1.7,2.6,7.1,4.9,12.1c5.3,11.9,5.8,13.2,9.1,20.8c1.6,3.7,3.3,7.8,4,9.2c7.1,16,7.9,19.4,5.3,21.1
				c-3.2,2-7-1.2-10.7-9.2c-2.1-4.6-3.8-9-3.8-9.6c0-0.8-0.8-3-1.8-5.1c-1.1-2-2.8-5.8-3.8-8.3c-7.3-16.5-7.8-17.4-9.1-16.1
				c-0.8,0.8-1.8,7.8-2.5,15.7c-2.6,30.9-2.9,32.3-4.7,33c-2.2,0.9-7.9-4.2-9.1-8c-0.4-1.6-2.5-6.5-4.6-11.1c-2.1-4.5-3.8-9-3.8-9.9
				c0-0.8-0.9-2.8-2-4.1c-1.1-1.5-2-3.7-2-5s-0.5-2.4-1.2-2.4s-1.6-2.1-2-4.6c-1.2-5.9-4.4-6.1-5.3-0.3c-2.2,16.5-3.4,27.8-3.4,34.7
				C947.1,11317.5,944.4,11320.5,938.7,11316.3z"/>
			<path class="st3" d="M1399.6,11316.7c-1.3-1.8-1.8-4.2-4.2-19.5c-0.8-5.4-2.1-11.9-2.8-14.1c-0.8-2.4-1.8-8.3-2.5-13.2
				c-0.7-5-1.7-11.6-2.4-14.9c-0.9-4-0.9-6.5,0-7.5c2-2.5,3.4-2.1,7,1.6c2.4,2.2,3.3,4.6,3.3,8.3c0,2.8,0.7,6.9,1.3,9
				c0.8,2.1,1.8,7.6,2.5,12.4c2.8,19.6,4.4,28.6,5.4,32.2c0.9,2.6,0.8,4.5-0.1,5.7C1405.3,11318.7,1401.4,11318.8,1399.6,11316.7z"
				/>
			<path class="st3" d="M1440.6,11317.1c-6.6-1.7-16.6-9.9-19.8-16.2c-4.6-9.4-7-19.2-7-29.9c0-8.8,0.4-10.8,3.3-14.8
				c5.7-7.5,12.7-10.4,25.7-10.4c6.2,0,12,0.5,12.9,1.2c1.1,0.7,1.6,2.8,1.3,4.9l-0.4,3.8l-12.8,0.7c-14.2,0.8-16.5,1.8-19.9,10.5
				c-2.2,5.4-0.9,10.5,2.6,10.5c1.3,0.1,10.9,0.1,21.5,0.1c17.7,0,19.2,0.3,22,2.8c2.6,2.5,3,4.1,3,13.3c0,12-2.2,17-9.2,21.2
				C1459.3,11317.5,1447.1,11318.7,1440.6,11317.1z M1456.6,11306.3c3.3-2,5.1-4.4,6.6-8.8c3-8.7,1.6-9.5-16.9-9.5
				c-15.2,0-20.6,0.8-20.6,2.8c0,2.9,7,12,11.6,14.9C1443.4,11309.7,1450.5,11310,1456.6,11306.3z"/>
		</g>
	</g>
</g>
</svg>
